<svg xmlns="http://www.w3.org/2000/svg" viewBox="0 0 350 394.64"><defs><style>.cls-1{fill:#fff;}</style></defs><g id="Layer_2" data-name="Layer 2"><g id="Layer_1-2" data-name="Layer 1"><path class="cls-1" d="M192,0V121.3a104.73,104.73,0,0,0-31.42,8.38l-50.7-89.32L105,31.81A227.26,227.26,0,0,1,192,0Z"/><path class="cls-1" d="M141.31,140.74a106.15,106.15,0,0,0-23.77,23.77L31.59,106.1l-.56-.39A228.47,228.47,0,0,1,86.61,44.47l3.49,6.16Z"/><path class="cls-1" d="M106.46,183.82a105.23,105.23,0,0,0-8.33,31.32H.11c0-1.89-.11-3.78-.11-5.67a184.64,184.64,0,0,1,11.05-63.18c.5-1.27,1-2.6,1.49-3.88.68-1.73,1.4-3.45,2.12-5.16.5-1.34,1.1-2.61,1.72-3.95s1.22-2.72,1.88-4.05,1.28-2.66,2-4l85.95,58.41Z"/><path class="cls-1" d="M106.41,268.86,90.33,279.77,34.76,317.52A185,185,0,0,1,2.05,237.35H98.1A104.84,104.84,0,0,0,106.41,268.86Z"/><path class="cls-1" d="M141,311.85,123.7,342.33l-19.21,33.88a185.32,185.32,0,0,1-55.64-41.42l48.42-32.87,20.21-13.72A106.27,106.27,0,0,0,141,311.85Z"/><path class="cls-1" d="M192,331.5v63c-2.28.05-4.56.11-6.83.11a186.11,186.11,0,0,1-60-9.89l15.54-27.37L160.27,323A104.5,104.5,0,0,0,192,331.5Z"/><path class="cls-1" d="M274.1,371.93a185.22,185.22,0,0,1-59.91,20.43V331.53a105,105,0,0,0,32.12-8.59h0l27.23,48Z"/><path class="cls-1" d="M332,317.85a128.61,128.61,0,0,1-25,31,13.39,13.39,0,0,1-1.72,1.5q-2.83,2.49-5.83,4.83c-1.16.89-2.33,1.78-3.55,2.66-.34.28-.67.51-1,.78-.67.45-1.33.95-2,1.39l-27.35-48.2a106,106,0,0,0,23.29-23.36Z"/><path class="cls-1" d="M350,251.61a130,130,0,0,1-8.33,45.92l-41.75-28.37a105,105,0,0,0,8.44-31.81h40.86A133.78,133.78,0,0,1,350,251.61Z"/><path class="cls-1" d="M248.17,123.64l-3.38,5.89a102.54,102.54,0,0,0-30.59-8v-1.16c1.5-.12,2.94-.12,4.44-.12A129.47,129.47,0,0,1,248.17,123.64Z"/><path class="cls-1" d="M344.83,215.14h-36.5a104.8,104.8,0,0,0-8.51-31.71l21-14.32A130.33,130.33,0,0,1,344.83,215.14Z"/><path class="cls-1" d="M305.25,152.9l-16.59,11.26a106.32,106.32,0,0,0-24.31-24l5.42-9.57A130.89,130.89,0,0,1,305.25,152.9Z"/></g></g></svg>