<?xml version="1.0" encoding="UTF-8"?>
<svg id="Layer_2" data-name="Layer 2" xmlns="http://www.w3.org/2000/svg" viewBox="0 0 100 80.15">
  <g id="Layer_1-2" data-name="Layer 1">
    <g>
      <path d="M34.83,39.6c0,1.24-.48,2.31-1.42,3.23-.95.91-2.11,1.37-3.48,1.37h-4.74V7.34h4.74c1.35,0,2.5.45,3.46,1.35.96.9,1.44,1.98,1.44,3.25v27.66Z"/>
      <path d="M53.88,0l-9.49,51.29h-9.89c1.75-.61,3.35-1.59,4.78-2.92,2.66-2.47,3.99-5.46,3.99-8.94V11.81c0-3.46-1.33-6.43-3.97-8.9-1.42-1.33-3.02-2.3-4.78-2.92h19.35Z"/>
      <polygon points="64.43 39.94 66.33 51.29 53.41 51.29 55.38 39.94 64.43 39.94"/>
      <polygon points="74.81 0 74.81 51.29 66.08 0 74.81 0"/>
      <polygon points="57.81 17.06 59.87 22.68 62.07 17.06 63.93 17.06 61.58 27.41 62.51 27.41 62.76 28.94 63.49 28.94 63.93 30.87 55.81 30.87 56.35 29.03 57.08 29.03 57.57 27.27 58.16 27.27 55.81 17.06 57.81 17.06"/>
      <polygon points="59.87 18.91 59.05 13.02 57.89 13.98 58.12 11.52 56.67 10.18 58.94 9.8 59.87 8.14 61.03 9.75 63.31 10.13 61.97 11.41 62.08 13.53 60.86 13.02 59.87 18.91"/>
      <polygon points="52.97 65.18 54.84 65.18 53.91 62.78 52.97 65.18"/>
      <path d="M92.04,61.8h-1.49v1.82h1.49c.67,0,1.14-.36,1.14-.91s-.47-.91-1.14-.91"/>
      <path d="M0,70.27h100v-12.74H0v12.74ZM8.15,67.85h-2.83v-7.83h2.83c2.66,0,4.53,1.62,4.53,3.91s-1.87,3.92-4.53,3.92M19.73,61.77h-4.17v1.22h3.79v1.74h-3.79v1.38h4.17v1.74h-6.1v-7.83h6.1v1.74ZM23.71,67.99c-1.38,0-2.63-.46-3.56-1.31l1.08-1.31c.76.63,1.6.99,2.55.99.72,0,1.09-.3,1.09-.72,0-.47-.36-.57-1.49-.84-1.66-.38-2.89-.83-2.89-2.41s1.2-2.51,2.97-2.51c1.3,0,2.31.38,3.13,1.07l-.98,1.39c-.71-.55-1.49-.83-2.21-.83-.62,0-.97.3-.97.68,0,.48.37.64,1.52.89,1.74.38,2.85.88,2.85,2.35,0,1.57-1.18,2.55-3.1,2.55M29.63,67.85h-1.93v-7.83h1.93v7.83ZM34.78,66.22c.45,0,.91-.15,1.3-.41v-.98h-1.66v-1.47h3.53v3.27c-.79.85-1.97,1.36-3.17,1.36-2.29,0-4.21-1.86-4.21-4.06s1.92-4.05,4.21-4.05c1.2,0,2.38.5,3.17,1.34l-1.41,1.27c-.42-.52-1.09-.84-1.76-.84-1.21,0-2.23,1.05-2.23,2.28s1.03,2.29,2.23,2.29M46.26,67.85h-1.93l-3.37-4.63v4.63h-1.93v-7.83h1.93l3.37,4.63v-4.63h1.93v7.83ZM55.89,67.85l-.45-1.14h-3.07l-.45,1.14h-2.17l3.07-7.83h2.16l3.07,7.83h-2.16ZM64.1,61.77h-2.34v6.09h-1.93v-6.09h-2.36v-1.74h6.63v1.74ZM70.99,61.77h-4.17v1.22h3.79v1.74h-3.79v1.38h4.17v1.74h-6.1v-7.83h6.1v1.74ZM77.58,67.85h-5.65v-7.83h1.92v6.09h3.73v1.74ZM80.33,67.85h-1.93v-7.83h1.93v7.83ZM87.67,61.77h-4.17v1.22h3.79v1.74h-3.79v1.38h4.17v1.74h-6.1v-7.83h6.1v1.74ZM93.2,67.85l-1.7-2.45h-.95v2.45h-1.93v-7.83h3.6c1.7,0,2.94,1.11,2.94,2.69,0,1.14-.64,2.04-1.65,2.45l1.87,2.69h-2.19Z"/>
      <path d="M8.45,61.79h-1.19v4.3h1.19c1.32,0,2.27-.9,2.27-2.15s-.95-2.14-2.27-2.14"/>
      <path d="M12.64,74.26c0-.23-.05-.43-.16-.6-.1-.16-.26-.25-.48-.25-.24,0-.41.07-.53.22-.11.14-.17.3-.17.48,0,.26.09.46.27.61.18.15.4.28.68.39.27.11.56.22.87.33.31.11.6.26.87.44.27.18.5.42.68.72.18.3.27.68.27,1.16,0,.84-.26,1.44-.78,1.82-.52.38-1.27.56-2.25.56-.46,0-.87-.03-1.22-.1-.36-.07-.65-.19-.9-.36-.24-.17-.43-.4-.55-.68-.13-.28-.19-.62-.19-1.03v-.27h2.15v.19c0,.34.07.57.2.71.14.14.31.2.53.2.23,0,.41-.07.53-.22.12-.15.18-.33.18-.54,0-.26-.09-.46-.26-.61-.17-.15-.39-.28-.65-.38-.26-.11-.54-.22-.84-.33-.3-.11-.58-.25-.84-.43-.26-.18-.47-.41-.65-.69-.17-.29-.26-.66-.26-1.12,0-.8.23-1.41.69-1.82.46-.42,1.16-.63,2.1-.63s1.67.19,2.11.58c.43.38.65,1,.65,1.84h-2.08v-.19Z"/>
      <polygon points="15.21 73.92 15.21 72.19 20.76 72.19 20.76 73.92 19.08 73.92 19.08 80.03 16.86 80.03 16.86 73.92 15.21 73.92"/>
      <path d="M23.39,77.85c0,.38.06.64.18.76.12.13.28.19.49.19s.37-.06.49-.19c.12-.13.18-.38.18-.76v-5.66h2.22v5.14c0,.55-.06,1.01-.19,1.37-.13.37-.31.66-.56.88-.24.22-.54.37-.9.45-.36.08-.77.12-1.24.12s-.87-.04-1.24-.12c-.36-.08-.67-.23-.91-.45-.24-.22-.43-.51-.56-.88-.13-.37-.19-.82-.19-1.37v-5.14h2.22v5.66Z"/>
      <path d="M31.13,72.19c.65,0,1.15.11,1.51.32.36.22.63.51.81.87.18.36.29.78.33,1.25.04.47.06.96.06,1.48s-.02,1.01-.06,1.48c-.04.47-.15.89-.33,1.25-.18.36-.45.65-.81.87-.36.22-.86.32-1.51.32h-3.23v-7.84h3.23ZM30.57,78.56c.21,0,.39-.03.51-.08.13-.06.23-.17.29-.35.07-.18.11-.42.13-.75.02-.32.03-.75.03-1.27s0-.95-.03-1.27c-.02-.32-.06-.57-.13-.75-.07-.18-.17-.29-.29-.35-.13-.06-.3-.08-.51-.08h-.44v4.9h.44Z"/>
      <polygon points="39.82 72.19 39.82 73.86 36.99 73.86 36.99 75.2 39.64 75.2 39.64 76.8 36.99 76.8 36.99 78.36 39.93 78.36 39.93 80.03 34.76 80.03 34.76 72.19 39.82 72.19"/>
      <polygon points="43.23 72.19 44.66 77.02 44.69 77.02 44.69 72.19 46.77 72.19 46.77 80.03 44.33 80.03 42.84 75.19 42.82 75.19 42.82 80.03 40.74 80.03 40.74 72.19 43.23 72.19"/>
      <polygon points="47.29 73.92 47.29 72.19 52.84 72.19 52.84 73.92 51.16 73.92 51.16 80.03 48.94 80.03 48.94 73.92 47.29 73.92"/>
      <path d="M56.66,74.26c0-.23-.05-.43-.16-.6-.1-.16-.26-.25-.48-.25-.24,0-.41.07-.53.22-.11.14-.17.3-.17.48,0,.26.09.46.27.61.18.15.4.28.68.39.27.11.56.22.87.33.31.11.6.26.87.44.27.18.5.42.68.72.18.3.27.68.27,1.16,0,.84-.26,1.44-.78,1.82-.52.38-1.27.56-2.25.56-.46,0-.87-.03-1.22-.1-.36-.07-.65-.19-.9-.36-.24-.17-.43-.4-.55-.68-.13-.28-.19-.62-.19-1.03v-.27h2.15v.19c0,.34.07.57.2.71.14.14.31.2.53.2.23,0,.41-.07.53-.22.12-.15.18-.33.18-.54,0-.26-.09-.46-.26-.61-.17-.15-.39-.28-.65-.38-.26-.11-.54-.22-.84-.33-.3-.11-.58-.25-.84-.43-.26-.18-.47-.41-.65-.69-.17-.29-.26-.66-.26-1.12,0-.8.23-1.41.69-1.82.46-.42,1.16-.63,2.1-.63s1.67.19,2.11.58c.43.38.65,1,.65,1.84h-2.08v-.19Z"/>
      <path d="M66.12,72.19c.42,0,.79.06,1.1.19.31.13.57.29.77.51.2.22.35.47.45.76.1.29.14.61.14.96,0,.81-.24,1.42-.71,1.83-.47.41-1.17.61-2.09.61h-.78v2.99h-2.22v-7.85h3.34ZM65.42,75.57c.28,0,.49-.08.64-.23.15-.15.22-.4.22-.73,0-.64-.29-.96-.86-.96h-.42v1.91h.42Z"/>
      <path d="M72.76,72.19c.42,0,.78.05,1.08.15.3.1.54.25.73.43.19.19.32.41.41.67.08.26.13.54.13.84,0,.53-.12.95-.35,1.27-.23.32-.6.52-1.11.59v.02c.53.04.9.22,1.1.52.2.3.3.72.3,1.24v.99c0,.11,0,.22.01.31,0,.1.02.19.04.27.02.08.04.14.06.19.03.04.06.09.1.13.03.04.08.08.16.12v.11h-2.37c-.06-.1-.1-.22-.13-.36-.03-.14-.05-.28-.06-.42-.01-.14-.02-.27-.02-.4,0-.13,0-.23,0-.31v-.53c0-.22-.01-.4-.04-.55-.02-.15-.07-.26-.12-.35-.06-.08-.14-.14-.23-.18-.09-.03-.21-.05-.34-.05h-.59v3.14h-2.22v-7.84h3.48ZM71.95,75.51c.32,0,.55-.09.71-.26.15-.17.23-.4.23-.68,0-.33-.07-.56-.22-.7-.15-.14-.39-.21-.72-.21h-.43v1.85h.44Z"/>
      <rect x="76.06" y="72.19" width="2.22" height="7.84"/>
      <polygon points="81.64 73.86 79.14 73.86 79.14 72.19 84.24 72.19 84.24 73.66 81.51 78.36 84.24 78.36 84.24 80.03 78.97 80.03 78.97 78.56 81.64 73.86"/>
      <polygon points="90.06 72.19 90.06 73.86 87.22 73.86 87.22 75.2 89.88 75.2 89.88 76.8 87.22 76.8 87.22 78.36 90.16 78.36 90.16 80.03 85 80.03 85 72.19 90.06 72.19"/>
    </g>
  </g>
</svg>