<svg xmlns="http://www.w3.org/2000/svg" viewBox="0 0 113 139.63"><g id="Layer_2" data-name="Layer 2"><g id="Layer_1-2" data-name="Layer 1"><path d="M3.19,118.21H.33v8.89H3.17a4.65,4.65,0,0,0,3.6-1.31,4.56,4.56,0,0,0,1.08-3.13C7.85,119.78,6.14,118.21,3.19,118.21ZM3,126H1.79v-6.67H3c2.2,0,3.29,1.11,3.29,3.34S5.21,126,3,126Z"/><path d="M12.6,122.07l3.81-3.86H14.55l-4.06,4.23h0v-4.23H9v8.89h1.46v-2.83L11.68,123l3.09,4.09h1.78Z"/><path d="M24.31,118.21H22.66L19,127.1h1.58l.87-2.32h4l.89,2.32h1.57Zm-2.45,5.52,1-2.52.62-1.76h.08c.37,1,.57,1.62.63,1.76l.94,2.52Z"/><path d="M35.56,124.72a2.75,2.75,0,0,0-.78-1.91,2.37,2.37,0,0,0,1-2c0-1.5-1.19-2.62-3.18-2.62H28.72v8.91h1.44v-3.64h2.32c1.29,0,1.56.43,1.62,1.34a4.56,4.56,0,0,0,.55,2.3h1.63A4.16,4.16,0,0,1,35.56,124.72Zm-3.22-2.25H30.16v-3.14h2.16c1.28,0,2,.53,2,1.56S33.56,122.47,32.34,122.47Z"/><path d="M43.52,124.68a2.59,2.59,0,0,1-2.36,1.5c-1.69,0-2.82-1.35-2.82-3.52s1.1-3.55,2.82-3.55a2.51,2.51,0,0,1,2.17,1.35l1.25-.37a3.66,3.66,0,0,0-3.4-2.09c-2.56,0-4.34,1.8-4.34,4.66s1.83,4.65,4.34,4.65a3.91,3.91,0,0,0,2.44-.77,4.26,4.26,0,0,0,1.21-1.49Z"/><path d="M51.68,118.21V122H47.4v-3.76H45.94v8.89H47.4v-4h4.28v4h1.46v-8.89Z"/><path d="M54.45,118.21v8.89h1.46v-8.89Z"/><path d="M56.85,118.21v1.12h2.93v7.77h1.45v-7.77h2.91v-1.12Z"/><path d="M66.54,126v-2.93H71V122H66.54v-2.62h4.95v-1.12H65.08v8.89H71.6V126Z"/><path d="M79.35,124.68a2.59,2.59,0,0,1-2.36,1.5c-1.69,0-2.82-1.35-2.82-3.52s1.1-3.55,2.82-3.55a2.51,2.51,0,0,1,2.17,1.35l1.25-.37A3.65,3.65,0,0,0,77,118c-2.55,0-4.34,1.8-4.34,4.66s1.83,4.65,4.34,4.65a3.91,3.91,0,0,0,2.44-.77,4.19,4.19,0,0,0,1.22-1.49Z"/><path d="M81.4,118.21v1.12h2.93v7.77h1.45v-7.77h2.91v-1.12Z"/><path d="M95.41,118.21v5.6a2.07,2.07,0,0,1-2.17,2.37c-1.3,0-2.14-.78-2.14-2.37v-5.6H89.64v5.61c0,2.29,1.31,3.49,3.6,3.49s3.63-1.28,3.63-3.49v-5.61Z"/><path d="M105,124.72a2.81,2.81,0,0,0-.79-1.91,2.37,2.37,0,0,0,1-2c0-1.5-1.19-2.62-3.18-2.62H98.19v8.91h1.44v-3.64H102c1.29,0,1.56.43,1.62,1.34a4.66,4.66,0,0,0,.55,2.3h1.63A4.07,4.07,0,0,1,105,124.72Zm-3.23-2.25H99.63v-3.14h2.16c1.28,0,1.95.53,1.95,1.56S103,122.47,101.81,122.47Z"/><path d="M107.94,126v-2.93h4.46V122h-4.46v-2.62h5v-1.12h-6.41v8.89H113V126Z"/><path d="M6.78,137.61a5.47,5.47,0,0,0,.57-2.77H6.16a5.11,5.11,0,0,1-.2,1.79L3.88,134.2a2.88,2.88,0,0,0,1.48-2.39,1.91,1.91,0,0,0-2.09-1.93,2,2,0,0,0-2.16,2,3.2,3.2,0,0,0,1,2c-1.49.92-2.11,1.8-2.11,3,0,1.61,1.28,2.66,3.26,2.66a4.09,4.09,0,0,0,2.78-1l.76.88H8.32ZM3.26,131c.58,0,.9.29.9.79s-.29,1-1,1.51c-.66-.77-.85-1.09-.85-1.43A.84.84,0,0,1,3.26,131Zm0,7.41c-1.32,0-2.07-.56-2.07-1.51s.43-1.38,1.67-2.09l2.45,2.86A2.71,2.71,0,0,1,3.26,138.43Z"/><path d="M14.05,130.53H11.19v8.89H14a4.65,4.65,0,0,0,3.6-1.31A4.58,4.58,0,0,0,18.7,135C18.7,132.1,17,130.53,14.05,130.53Zm-.19,7.78H12.64v-6.68h1.25q3.28,0,3.29,3.35T13.86,138.31Z"/><path d="M21.31,138.3v-2.93h4.46v-1.1H21.31v-2.62h5v-1.12H19.85v8.89h6.52V138.3Z"/><path d="M33.78,135.31a6,6,0,0,0-1.9-.85l-.3-.1a4.18,4.18,0,0,1-2-.85,1,1,0,0,1-.4-.79c0-.78.72-1.29,1.89-1.29a2.59,2.59,0,0,1,2.21,1.09l1.23-.38a3.71,3.71,0,0,0-3.43-1.82c-2,0-3.41,1-3.41,2.42a2.09,2.09,0,0,0,1.23,1.9,12.76,12.76,0,0,0,2.05.75,6.32,6.32,0,0,1,1.54.61,1.2,1.2,0,0,1,.67,1.09c0,.85-.81,1.41-2,1.41a3,3,0,0,1-2.56-1.3l-1.3.4a4.12,4.12,0,0,0,3.84,2c2.09,0,3.53-1,3.53-2.6A2,2,0,0,0,33.78,135.31Z"/><path d="M35.68,130.53v8.89h1.45v-8.89Z"/><path d="M42.53,134.51v1.11h2.55c0,.39,0,.64,0,.76a2.21,2.21,0,0,1-2.43,2.12c-1.71,0-2.86-1.34-2.86-3.52s1.08-3.55,2.93-3.55a2.55,2.55,0,0,1,2.24,1.31l1.25-.37a4,4,0,0,0-1.09-1.29,3.93,3.93,0,0,0-2.4-.76c-2.71,0-4.43,1.92-4.43,4.66s1.8,4.65,4.32,4.65a3.06,3.06,0,0,0,2.77-1.26l.11,1h1v-4.91Z"/><path d="M53.44,130.53v6.78l-4.22-6.78H47.66v8.89h1.45v-6.79l4.24,6.79h1.57v-8.89Z"/><path d="M41.5,67.5H34.25L19.89,100h7l3.23-8H45.5l3.31,8h7ZM31.94,87.6l5.75-14.88H38L43.73,87.6Z"/><path d="M71,67.5H57.86V100H70.93c6.12,0,11-1.27,14.16-3.28A14,14,0,0,0,89,93.13a15,15,0,0,0,2.86-9.4C91.86,73.27,84.35,67.5,71,67.5Zm-.92,28H65.23V72.1h5c8.75,0,14,3.3,14,11.63Q84.21,95.46,70.07,95.45Z"/><path d="M47.15,32.7q0,11.74-14.14,11.73H28.17V21.07h5C41.88,21.07,47.15,24.37,47.15,32.7Z"/><path d="M6.5,6.5V59h100V6.5ZM51.94,42.11A14,14,0,0,1,48,45.7C44.9,47.71,40,49,33.87,49H20.8V16.48H33.93c13.36,0,20.87,5.76,20.87,16.22A15.06,15.06,0,0,1,51.94,42.11ZM83.08,49,69.92,34.52l-4.79,4.09V49H57.86V16.5h7.27V31.22h.12l17-14.72h9.23L74.5,30.69,91.86,49Z"/><path d="M0,0V113H113V0ZM110,109.71H3V3.29H110Z"/></g></g></svg>