<?xml version="1.0" encoding="UTF-8"?>
<svg id="Layer_2" data-name="Layer 2" xmlns="http://www.w3.org/2000/svg" viewBox="0 0 100 44.15">
  <g id="Layer_1-2" data-name="Layer 1">
    <g>
      <g>
        <path d="M42.7,14.57c-.84,0-1.55-.3-2.14-.89-.59-.59-.88-1.31-.88-2.14s.29-1.56.88-2.15c.59-.59,1.3-.89,2.14-.89.6,0,1.14.17,1.62.5.48.33.84.77,1.09,1.32l-.97.28c-.16-.35-.4-.62-.7-.82-.3-.2-.65-.31-1.05-.31-.57,0-1.05.2-1.44.6-.39.4-.58.9-.58,1.48s.19,1.07.57,1.47c.38.4.86.6,1.44.6.4,0,.74-.1,1.04-.29s.53-.47.68-.81l.98.26c-.24.54-.6.98-1.08,1.31-.48.33-1.02.5-1.63.5Z"/>
        <path d="M50.91,13.69c-.59.59-1.3.89-2.14.89s-1.55-.3-2.14-.89c-.59-.59-.88-1.31-.88-2.15s.29-1.56.88-2.15c.59-.59,1.3-.89,2.14-.89s1.54.3,2.13.89c.59.59.88,1.31.89,2.15,0,.84-.29,1.56-.88,2.15ZM48.77,13.63c.57,0,1.05-.2,1.43-.61.38-.41.57-.9.57-1.48s-.19-1.07-.57-1.48c-.38-.41-.86-.61-1.43-.61s-1.05.2-1.44.61c-.39.41-.58.9-.58,1.48s.19,1.08.57,1.48c.38.41.86.61,1.44.61Z"/>
        <path d="M52.41,14.52v-5.95h1.67l1.67,5.29,1.67-5.29h1.68v5.95h-.98v-5.12l-1.61,5.12h-1.53l-1.6-5.09v5.09h-.98Z"/>
        <path d="M59.91,14.52v-5.95h1.67l1.67,5.29,1.67-5.29h1.68v5.95h-.98v-5.12l-1.61,5.12h-1.53l-1.6-5.09v5.09h-.98Z"/>
        <path d="M69.86,14.59c-.69,0-1.28-.23-1.76-.68-.48-.46-.72-1.06-.72-1.8v-3.54h1.01v3.54c0,.46.15.84.44,1.11.29.28.64.42,1.03.42s.73-.14,1.03-.42c.29-.28.44-.65.44-1.11v-3.54h1.01v3.54c0,.74-.24,1.33-.71,1.79-.48.46-1.07.69-1.77.69Z"/>
        <path d="M73.13,14.52v-5.95h1.73l2.41,5.16v-5.16h.99v5.95h-1.68l-2.46-5.27v5.27h-.99Z"/>
        <path d="M78.83,14.52l2.12-5.95h1.61l2.07,5.95h-1.05l-.46-1.3h-2.78l-.47,1.3h-1.05ZM80.66,12.3h2.18l-1.08-3.15-1.1,3.15Z"/>
        <path d="M87.32,14.59c-.69,0-1.28-.23-1.76-.68-.48-.46-.72-1.06-.72-1.8v-3.54h1.01v3.54c0,.46.15.84.44,1.11.29.28.64.42,1.03.42s.73-.14,1.03-.42c.29-.28.44-.65.44-1.11v-3.54h1.01v3.54c0,.74-.24,1.33-.71,1.79-.48.46-1.07.69-1.77.69Z"/>
        <path d="M92.28,14.52v-5.01h-1.92v-.94h4.78v.94h-1.85v5.01h-1.01Z"/>
        <path d="M95.76,14.52v-5.95h4.24v.93h-3.23v1.58h2.89v.91h-2.89v1.58h3.23v.94h-4.24ZM97.19,7.95l.82-1.18h1.16l-1.12,1.18h-.87Z"/>
        <path d="M42.31,22.66c-.69,0-1.28-.23-1.76-.68-.48-.46-.72-1.06-.72-1.8v-3.54h1.01v3.54c0,.46.15.84.44,1.11.29.28.64.42,1.03.42s.73-.14,1.03-.42c.29-.28.44-.65.44-1.11v-3.54h1.01v3.54c0,.74-.24,1.33-.71,1.79-.48.46-1.07.69-1.77.69Z"/>
        <path d="M45.56,22.59v-5.95h2.58c.57,0,1.05.19,1.43.58.38.39.57.85.57,1.39,0,.41-.12.78-.36,1.11-.24.33-.55.55-.93.66l1.36,2.22h-1.09l-1.28-2.1h-1.27v2.1h-1.01ZM46.57,19.62h1.53c.3,0,.55-.1.76-.29.2-.2.31-.44.31-.74s-.09-.53-.28-.73c-.19-.2-.43-.3-.74-.3h-1.57v2.07Z"/>
        <path d="M50.83,22.59v-5.95h2.68c.56,0,1,.15,1.33.44.33.29.49.66.49,1.12,0,.29-.07.56-.22.8s-.34.42-.58.55c.34.12.6.31.77.57.18.25.26.54.26.87,0,.48-.17.86-.51,1.16s-.8.45-1.39.45h-2.84ZM51.81,19.19h1.65c.27,0,.49-.08.66-.24.17-.16.25-.36.25-.59s-.08-.43-.24-.58c-.16-.15-.38-.23-.64-.23h-1.67v1.64ZM51.81,21.67h1.8c.28,0,.5-.08.67-.23s.25-.35.25-.6-.09-.46-.26-.61c-.18-.14-.41-.22-.69-.22h-1.78v1.66Z"/>
        <path d="M55.72,22.59l2.12-5.95h1.61l2.07,5.95h-1.05l-.46-1.3h-2.78l-.47,1.3h-1.05ZM57.55,20.37h2.18l-1.08-3.15-1.1,3.15Z"/>
        <path d="M62.07,22.59v-5.95h1.01v5.95h-1.01Z"/>
        <path d="M63.97,22.59v-5.95h1.73l2.41,5.16v-5.16h.99v5.95h-1.68l-2.46-5.27v5.27h-.99Z"/>
        <path d="M69.94,22.59v-5.95h4.24v.93h-3.23v1.58h2.89v.91h-2.89v1.58h3.23v.94h-4.24Z"/>
        <path d="M39.83,30.67v-5.97h2.12c.85,0,1.57.29,2.16.86.59.57.89,1.28.89,2.12,0,.84-.29,1.55-.88,2.12-.59.58-1.31.86-2.17.86h-2.12ZM40.84,29.72h1.1c.61,0,1.1-.19,1.48-.58.38-.39.57-.87.57-1.45s-.19-1.08-.57-1.47-.88-.57-1.48-.57h-1.1v4.07Z"/>
        <path d="M45.13,26.81l.43-2.16h.97l-.66,2.16h-.74Z"/>
        <path d="M47.11,30.67v-5.95h4.24v.93h-3.23v1.58h2.89v.91h-2.89v1.58h3.23v.94h-4.24Z"/>
        <path d="M52.08,30.67v-5.95h2.68c.56,0,1,.15,1.33.44.33.29.49.66.49,1.12,0,.29-.07.56-.22.8s-.34.42-.58.55c.34.12.6.31.77.57.18.25.26.54.26.87,0,.48-.17.86-.51,1.16s-.8.45-1.39.45h-2.84ZM53.06,27.27h1.65c.27,0,.49-.08.66-.24.17-.16.25-.36.25-.59s-.08-.43-.24-.58c-.16-.15-.38-.23-.64-.23h-1.67v1.64ZM53.06,29.75h1.8c.28,0,.5-.08.67-.23s.25-.35.25-.6-.09-.46-.26-.61c-.18-.14-.41-.22-.69-.22h-1.78v1.66Z"/>
        <path d="M62.3,29.84c-.59.59-1.3.89-2.14.89s-1.55-.3-2.14-.89c-.59-.59-.88-1.31-.88-2.15s.29-1.56.88-2.15c.59-.59,1.3-.89,2.14-.89s1.54.3,2.13.89c.59.59.88,1.31.89,2.15,0,.84-.29,1.56-.88,2.15ZM60.16,29.78c.57,0,1.05-.2,1.43-.61.38-.41.57-.9.57-1.48s-.19-1.07-.57-1.48c-.38-.41-.86-.61-1.43-.61s-1.05.2-1.44.61c-.39.41-.58.9-.58,1.48s.19,1.08.57,1.48c.38.41.86.61,1.44.61Z"/>
        <path d="M63.75,30.67v-5.95h1.01v5.01h2.89v.94h-3.9Z"/>
        <path d="M72.81,29.84c-.59.59-1.3.89-2.14.89s-1.55-.3-2.14-.89c-.59-.59-.88-1.31-.88-2.15s.29-1.56.88-2.15c.59-.59,1.3-.89,2.14-.89s1.54.3,2.13.89c.59.59.88,1.31.89,2.15,0,.84-.29,1.56-.88,2.15ZM70.66,29.78c.57,0,1.05-.2,1.43-.61.38-.41.57-.9.57-1.48s-.19-1.07-.57-1.48c-.38-.41-.86-.61-1.43-.61s-1.05.2-1.44.61c-.39.41-.58.9-.58,1.48s.19,1.08.57,1.48c.38.41.86.61,1.44.61Z"/>
        <path d="M75.08,30.67l-1.29-5.95h1.05l1.04,5.16,1.15-5.16h1.56l1.11,5.15,1.05-5.15h1.05l-1.31,5.95h-1.56l-1.1-5.32-1.16,5.32h-1.56Z"/>
        <path d="M81.51,30.67l2.12-5.95h1.61l2.07,5.95h-1.05l-.46-1.3h-2.78l-.47,1.3h-1.05ZM83.33,28.45h2.18l-1.08-3.15-1.1,3.15Z"/>
      </g>
      <g>
        <g>
          <polygon points="5.93 16.26 5.93 20.44 5.01 19.57 5.01 17.13 5.93 16.26"/>
          <path d="M11.49,8.6l-4.47,4.23-1.09,1.03v.89l-.31.3-1.04.99-.65.62v3.36l1.09,1.04.59.56.09.08-.72.95v10.68c-1.62-1.79-2.78-3.81-2.78-5.89V8.6h9.31Z"/>
          <polygon points="23.47 18.1 22.63 19.23 20.32 19.23 20.64 18.12 23.47 18.1"/>
          <polygon points="25.61 18.08 25.61 21.49 22.64 23.9 19.65 21.62 20.02 20.32 23.17 20.32 23.99 19.23 24.84 18.09 25.61 18.08"/>
          <polygon points="29.9 17.13 29.9 19.57 28.98 20.44 28.98 16.26 29.9 17.13"/>
          <path d="M32.73,8.6v18.85c0,2.08-1.17,4.1-2.78,5.89v-10.68l-.72-.95.09-.08.59-.56,1.09-1.04v-3.36l-.65-.62-1.04-.99-.31-.3v-.89l-1.09-1.03-4.47-4.23h9.31Z"/>
          <path d="M28.85,23.03v11.43c-.69.65-1.42,1.27-2.15,1.84v-12.08l-.95-1.44.95-.77v-4.66l-.21-.2-.16-.16-4.37-4.33-3.97,1.44v-5.5h3.83l6.06,5.73v7.43l.54.71.42.56Z"/>
          <polygon points="22.13 33.67 21.12 35.7 17.45 36.3 13.78 35.7 12.78 33.67 22.13 33.67"/>
          <path d="M23.17,28.46l-1.07-1.64v-1.96l-2.77-2.11-.42-.32-.71.32-.75.33-.75-.33-.71-.32-.42.32-2.77,2.11v1.96l-1.07,1.64-.36.56v3.11l.57.44h11.03l.57-.44v-3.11l-.36-.56ZM16.28,27.27l-1.59-1.3v-1.38h1.09v.86l1.19.97-.69.85ZM20.22,25.97l-1.59,1.3-.69-.85,1.19-.97v-.86h1.09v1.38Z"/>
          <path d="M25.61,24.54v12.57c-.19.13-.37.26-.56.39-3.21,2.2-6.46,3.75-7.6,4.27-1.14-.52-4.38-2.06-7.58-4.26-.19-.13-.38-.27-.58-.4v-12.57l.71-1.08,1.71,1.39v1.64l-.8,1.23-.63.96v3.97l1.09.86.19.15h0l1.49,3.03,4.28.7.12.02.12-.02,4.28-.7,1.49-3.03h0l.19-.15,1.09-.86v-3.97l-.63-.96-.8-1.23v-1.64l1.71-1.39.71,1.08Z"/>
          <polygon points="14.58 19.23 12.28 19.23 11.44 18.1 14.27 18.12 14.58 19.23"/>
          <polygon points="15.26 21.62 12.27 23.9 9.3 21.49 9.3 18.08 10.07 18.09 10.92 19.23 11.74 20.32 14.89 20.32 15.26 21.62"/>
          <path d="M16.91,8.6v5.5l-3.97-1.44-4.37,4.33-.16.16-.21.2v4.66l.95.77-.95,1.44v12.08c-.73-.57-1.46-1.18-2.15-1.84v-11.43l.42-.56.54-.71v-7.43l6.06-5.73h3.83Z"/>
          <polygon points="24.8 17 24.29 17 20.95 17.03 19.81 17.03 19.5 18.13 19.19 19.23 18.88 20.32 18.59 21.38 17.45 21.89 16.32 21.38 16.02 20.32 15.72 19.23 15.41 18.13 15.1 17.03 13.96 17.03 10.62 17 10.11 17 10.4 16.71 13.21 13.92 17.45 15.47 21.7 13.92 24.5 16.71 24.8 17"/>
        </g>
        <path d="M0,0v27.46c0,2.22.94,4.48,2.81,6.73,1.42,1.72,3.39,3.45,5.85,5.14,4.13,2.84,8.2,4.57,8.37,4.65l.43.18.43-.18c.17-.07,4.24-1.81,8.37-4.65,2.46-1.69,4.43-3.42,5.85-5.14,1.86-2.25,2.81-4.52,2.81-6.73V0H0ZM33.82,27.46c0,6.43-9.21,11.94-13.81,14.29-1.53.78-2.56,1.22-2.56,1.22,0,0-16.36-6.94-16.36-15.51V1.09h32.73v26.37Z"/>
        <g>
          <path d="M4.94,6.49c-.46,0-.84-.16-1.15-.47-.31-.32-.46-.71-.46-1.18s.15-.86.46-1.18c.31-.32.69-.48,1.15-.48.61,0,1.06.29,1.36.85l1.1-.32c-.23-.49-.56-.89-.99-1.19-.43-.3-.92-.45-1.47-.45-.76,0-1.41.27-1.95.81-.54.54-.81,1.19-.81,1.95s.27,1.41.81,1.95c.54.54,1.19.81,1.95.81.54,0,1.03-.15,1.47-.44.43-.29.76-.68.98-1.17l-1.12-.3c-.28.54-.73.81-1.33.81Z"/>
          <path d="M19.14,2.15v3.21c0,.33-.11.6-.34.83-.22.22-.49.33-.79.33s-.57-.11-.79-.33-.33-.5-.33-.83v-3.21h-1.16v3.21c0,.65.22,1.18.66,1.61.44.42.98.64,1.62.64s1.2-.21,1.63-.64c.43-.43.65-.96.65-1.6v-3.21h-1.16Z"/>
          <path d="M32.73,3.21v-1.07h-3.91v5.4h3.91v-1.07h-2.75v-1.1h2.44v-1.05h-2.44v-1.1h2.75Z"/>
        </g>
      </g>
    </g>
  </g>
</svg>