<svg xmlns="http://www.w3.org/2000/svg" viewBox="0 0 400 189.86"><g id="Layer_2" data-name="Layer 2"><g id="Layer_1-2" data-name="Layer 1"><path d="M.47,151h34a.37.37,0,0,1,.42.31l2,6.32a.37.37,0,0,1,0,.39.46.46,0,0,1-.4.18H7.62a.37.37,0,0,0-.42.42v9.66a.37.37,0,0,0,.42.42H29.81a.46.46,0,0,1,.39.18.35.35,0,0,1,0,.39l-2,6.32a.4.4,0,0,1-.41.31H7.62a.37.37,0,0,0-.42.42v12.32a.41.41,0,0,1-.47.47H.47a.42.42,0,0,1-.47-.47V151.44A.41.41,0,0,1,.47,151Z"/><path d="M40.67,151.6c0-.39.21-.58.63-.58h35a.37.37,0,0,1,.37.26l2,6.42a.31.31,0,0,1,0,.37.44.44,0,0,1-.34.16H48.45a.51.51,0,0,0-.58.57V166c0,.28.12.42.37.42H70.58a.35.35,0,0,1,.32.16.35.35,0,0,1,0,.31l-2,6.42a.41.41,0,0,1-.42.31H48.24a.33.33,0,0,0-.37.37v7.15a.71.71,0,0,0,.16.45.52.52,0,0,0,.42.18H78.31a.43.43,0,0,1,.34.15.24.24,0,0,1,0,.32l-2,6.42a.37.37,0,0,1-.37.26h-35q-.63,0-.63-.57Z"/><path d="M82.38,151.28a.28.28,0,0,1,.31-.31H112a11,11,0,0,1,4.73,1,12.07,12.07,0,0,1,3.76,2.74,13.14,13.14,0,0,1,2.5,3.94,11.88,11.88,0,0,1,.92,4.57,11,11,0,0,1-3.34,8,11.29,11.29,0,0,1-3.74,2.38,13.25,13.25,0,0,1-4.67.91c-.14,0-.16.06,0,.16l12.79,13.94a.21.21,0,0,1,0,.26.27.27,0,0,1-.24.16h-8.46a.31.31,0,0,1-.21-.11l-13.15-14.3a.31.31,0,0,0-.21-.11H89.9a.28.28,0,0,0-.31.32v13.83a.28.28,0,0,1-.32.31H82.69a.28.28,0,0,1-.31-.31Zm7.52,16H112a6.09,6.09,0,0,0,1.68-.24,4.6,4.6,0,0,0,1.51-.73,3.71,3.71,0,0,0,1.1-1.28,3.91,3.91,0,0,0,.41-1.82,4.93,4.93,0,0,0-.39-2,5,5,0,0,0-1.07-1.59,6,6,0,0,0-1.51-1.1,3.8,3.8,0,0,0-1.73-.42H89.9a.28.28,0,0,0-.31.32V167A.28.28,0,0,0,89.9,167.31Z"/><path d="M127.59,151.28a.28.28,0,0,1,.32-.31h29.34a10.93,10.93,0,0,1,4.72,1,12.07,12.07,0,0,1,3.76,2.74,13,13,0,0,1,2.5,3.94,11.88,11.88,0,0,1,.92,4.57,11,11,0,0,1-3.34,8,11.29,11.29,0,0,1-3.74,2.38,13.25,13.25,0,0,1-4.67.91c-.14,0-.15.06-.05.16l12.79,13.94a.21.21,0,0,1,0,.26.27.27,0,0,1-.24.16h-8.46a.29.29,0,0,1-.2-.11l-13.16-14.3a.31.31,0,0,0-.21-.11H135.11a.28.28,0,0,0-.31.32v13.83a.28.28,0,0,1-.32.31h-6.57a.28.28,0,0,1-.32-.31Zm7.52,16h22.14a6.07,6.07,0,0,0,1.67-.24,4.6,4.6,0,0,0,1.51-.73,3.71,3.71,0,0,0,1.1-1.28,3.79,3.79,0,0,0,.41-1.82,4.93,4.93,0,0,0-.39-2,5,5,0,0,0-1.07-1.59,5.79,5.79,0,0,0-1.51-1.1,3.8,3.8,0,0,0-1.72-.42H135.11a.28.28,0,0,0-.31.32V167A.28.28,0,0,0,135.11,167.31Z"/><path d="M195.41,189.86a24,24,0,0,1-5.17-.6,28.83,28.83,0,0,1-5.35-1.75,27.9,27.9,0,0,1-5-2.84,21.62,21.62,0,0,1-4.23-3.92,18.38,18.38,0,0,1-2.9-4.91,15.79,15.79,0,0,1-1.06-5.87,17.66,17.66,0,0,1,1.09-6.39,17.28,17.28,0,0,1,2.95-5,20.27,20.27,0,0,1,4.26-3.79,26.42,26.42,0,0,1,5-2.61,29.72,29.72,0,0,1,5.33-1.51,28.17,28.17,0,0,1,5.09-.5,29.34,29.34,0,0,1,8.06,1.2,25.7,25.7,0,0,1,7.71,3.66,20.39,20.39,0,0,1,5.76,6.18,16.57,16.57,0,0,1,2.28,8.8,18,18,0,0,1-1.81,8.09,18.72,18.72,0,0,1-5,6.29,23.29,23.29,0,0,1-7.54,4.08A30.1,30.1,0,0,1,195.41,189.86Zm0-32.52a20.46,20.46,0,0,0-6.45,1,17.85,17.85,0,0,0-5.25,2.71,13.52,13.52,0,0,0-3.55,4,10,10,0,0,0,0,9.84,13.38,13.38,0,0,0,3.55,4,17.63,17.63,0,0,0,5.25,2.72,21.51,21.51,0,0,0,12.9,0,17.87,17.87,0,0,0,5.27-2.72,13.35,13.35,0,0,0,3.58-4,10,10,0,0,0,0-9.84,13.49,13.49,0,0,0-3.58-4,18.09,18.09,0,0,0-5.27-2.71A20.5,20.5,0,0,0,195.41,157.34Z"/><path d="M261.87,186.83q0,.16-.21.27a40,40,0,0,1-5.93,1.9,31.67,31.67,0,0,1-7.7.86,38.3,38.3,0,0,1-9.32-1.15,27.81,27.81,0,0,1-8.3-3.49,19.25,19.25,0,0,1-6-6,15.57,15.57,0,0,1-2.3-8.54,19.19,19.19,0,0,1,1.3-7.38,17.89,17.89,0,0,1,3.45-5.46,19.5,19.5,0,0,1,4.85-3.79,30.69,30.69,0,0,1,5.54-2.37,31.87,31.87,0,0,1,5.53-1.23,40.53,40.53,0,0,1,4.81-.34,41.25,41.25,0,0,1,8.11.73c2.39.49,4.36,1,5.93,1.47a.33.33,0,0,1,.21.31l.52,7.2c0,.25-.1.37-.31.37a.1.1,0,0,1-.08,0l-.08,0c-.42-.18-1.08-.42-2-.73s-2-.63-3.24-.94a39.85,39.85,0,0,0-4.18-.81,33,33,0,0,0-4.9-.34,24.26,24.26,0,0,0-6.84,1,20.22,20.22,0,0,0-5.85,2.74,14.33,14.33,0,0,0-4.07,4.23,10.16,10.16,0,0,0-1.52,5.43,8.91,8.91,0,0,0,.94,4.15,10.81,10.81,0,0,0,2.48,3.14,14.74,14.74,0,0,0,3.5,2.21,25,25,0,0,0,4.05,1.44,28,28,0,0,0,4.09.78,30.89,30.89,0,0,0,3.63.24,22.92,22.92,0,0,0,4.57-.45,34,34,0,0,0,4-1,33.49,33.49,0,0,0,3.26-1.25c1-.44,1.7-.79,2.22-1.07a.11.11,0,0,0,.08,0s0,0,.08,0c.27,0,.38.13.31.37Z"/><path d="M288.86,189.86a24,24,0,0,1-5.17-.6,28.83,28.83,0,0,1-5.35-1.75,27.9,27.9,0,0,1-5-2.84,21.62,21.62,0,0,1-4.23-3.92,18.38,18.38,0,0,1-2.9-4.91,15.79,15.79,0,0,1-1.06-5.87,17.66,17.66,0,0,1,1.09-6.39,17.28,17.28,0,0,1,2.95-5,20.27,20.27,0,0,1,4.26-3.79,26.42,26.42,0,0,1,5-2.61,29.72,29.72,0,0,1,5.33-1.51,28.17,28.17,0,0,1,5.09-.5,29.34,29.34,0,0,1,8.06,1.2,25.7,25.7,0,0,1,7.71,3.66,20.39,20.39,0,0,1,5.76,6.18,16.57,16.57,0,0,1,2.28,8.8,18,18,0,0,1-1.81,8.09,18.72,18.72,0,0,1-5,6.29,23.29,23.29,0,0,1-7.54,4.08A30.1,30.1,0,0,1,288.86,189.86Zm0-32.52a20.46,20.46,0,0,0-6.45,1,17.85,17.85,0,0,0-5.25,2.71,13.52,13.52,0,0,0-3.55,4,10,10,0,0,0,0,9.84,13.38,13.38,0,0,0,3.55,4,17.63,17.63,0,0,0,5.25,2.72,21.51,21.51,0,0,0,12.9,0,17.87,17.87,0,0,0,5.27-2.72,13.35,13.35,0,0,0,3.58-4,10,10,0,0,0,0-9.84,13.49,13.49,0,0,0-3.58-4,18.09,18.09,0,0,0-5.27-2.71A20.5,20.5,0,0,0,288.86,157.34Z"/><path d="M316.74,151.28a.27.27,0,0,1,.31-.31h29.34a10.9,10.9,0,0,1,4.72,1,12,12,0,0,1,3.76,2.74,13,13,0,0,1,2.51,3.94,11.87,11.87,0,0,1,.91,4.57,10.85,10.85,0,0,1-3.34,8,11.24,11.24,0,0,1-3.73,2.38,13.29,13.29,0,0,1-4.67.91c-.14,0-.16.06-.06.16l12.8,13.94a.22.22,0,0,1,0,.26.26.26,0,0,1-.23.16h-8.46a.31.31,0,0,1-.21-.11l-13.16-14.3a.31.31,0,0,0-.2-.11h-12.8a.28.28,0,0,0-.31.32v13.83a.27.27,0,0,1-.31.31h-6.58a.27.27,0,0,1-.31-.31Zm7.51,16h22.14a6,6,0,0,0,1.67-.24,4.51,4.51,0,0,0,1.51-.73,3.61,3.61,0,0,0,1.1-1.28,3.79,3.79,0,0,0,.42-1.82,4.93,4.93,0,0,0-.39-2,5,5,0,0,0-1.07-1.59,6,6,0,0,0-1.52-1.1,3.76,3.76,0,0,0-1.72-.42H324.25a.28.28,0,0,0-.31.32V167A.28.28,0,0,0,324.25,167.31Z"/><path d="M362,151.6c0-.39.21-.58.62-.58h35a.37.37,0,0,1,.37.26l2,6.42a.33.33,0,0,1,0,.37.44.44,0,0,1-.34.16H369.73a.51.51,0,0,0-.58.57V166c0,.28.12.42.37.42h22.34a.36.36,0,0,1,.32.16.38.38,0,0,1,.05.31l-2,6.42a.41.41,0,0,1-.42.31H369.52a.33.33,0,0,0-.37.37v7.15a.65.65,0,0,0,.16.45.52.52,0,0,0,.42.18h29.86a.43.43,0,0,1,.34.15.26.26,0,0,1,0,.32l-2,6.42a.37.37,0,0,1-.37.26h-35c-.41,0-.62-.19-.62-.57Z"/><path d="M174.8,122.63H153.69C147,122.64,140,118,140,111.06s7-11.58,13.67-11.57H174.8c6.68,0,13.68,4.68,13.68,11.57S181.48,122.64,174.8,122.63Zm-21.11-21c-6.17,0-11.19,4.25-11.19,9.47s5,9.47,11.19,9.47H174.8c6.17,0,11.19-4.25,11.19-9.47s-5-9.47-11.19-9.47Z"/><path d="M153.69,122.63c-6.68,0-13.55-4.55-13.67-11.57a10.55,10.55,0,0,1,4-8.18,14.88,14.88,0,0,1,9.66-3.39v2.1a12.24,12.24,0,0,0-7.91,2.77,8.78,8.78,0,0,0-3.28,6.7c0,5.22,5,9.47,11.19,9.47Z"/><path d="M164.38,122.63c-6.67,0-13.54-4.55-13.67-11.57a10.55,10.55,0,0,1,4-8.18,14.88,14.88,0,0,1,9.66-3.39v2.1a12.24,12.24,0,0,0-7.9,2.77,8.76,8.76,0,0,0-3.29,6.7c0,5.22,5,9.47,11.19,9.47Z"/><path d="M175.07,122.63c-6.67,0-13.54-4.55-13.67-11.57a10.62,10.62,0,0,1,4-8.18,14.88,14.88,0,0,1,9.66-3.39v2.1a12.24,12.24,0,0,0-7.9,2.77,8.75,8.75,0,0,0-3.28,6.7c0,5.22,5,9.47,11.18,9.47Z"/><path d="M248.3,44.81,156.79,57.14C147,58.9,139.6,48.86,140,40.85c.4-7.66,19.07-11.37,26.34-14.18L238.58.38c11-2.9,17.91,11.47,19.95,18.66C260.91,27.47,260.86,42.33,248.3,44.81ZM163.78,28.24c-6,2.07-21.2,5-20.87,12.08.33,7.2,5.79,14.33,13.74,13.32l90.73-13c10.38-2.08,10.07-14.47,8.26-21.06-1.66-6-7-17.48-16.43-15.35Z"/><path d="M156.79,57.14C147,58.9,140.12,49.43,140,40.85c-.06-4.88,6.36-6.61,12.16-8.73s10.64-4.17,14.18-5.45c-1,.62-1.55.94-2.58,1.57-3,1-7.11,2.57-11.84,4.29s-9,3.75-9,7.79c0,7.55,5.79,14.33,13.74,13.32C156.72,55,156.79,55.73,156.79,57.14Z"/><path d="M169.91,55.37c-10,1.73-17-8.14-17.46-16.8-.25-5,5.5-7.24,10.82-9.69s9.91-4.7,13.44-6l-2.12,1.89a112.26,112.26,0,0,0-11.23,4.73c-4.36,2-8.18,4.35-8,8.51.3,7.66,6.16,14.71,14.32,13.75C169.77,53.21,169.91,53.92,169.91,55.37Z"/><path d="M183,53.6c-10.17,1.71-17.41-8.57-18.15-17.32-.44-5.16,4.65-7.85,9.49-10.64s9.16-5.23,12.7-6.51l-1.66,2.22a59.23,59.23,0,0,0-10.63,5.16c-4,2.28-7.33,4.95-7,9.24.58,7.76,6.54,15.08,14.9,14.16A28.63,28.63,0,0,1,183,53.6Z"/><path d="M196.15,51.83c-10.38,1.67-17.79-9-18.84-17.84-.62-5.29,3.79-8.46,8.15-11.59s8.43-5.75,12-7l-1.2,2.55a38.65,38.65,0,0,0-10,5.59c-3.57,2.56-6.47,5.56-6,10,.85,7.86,6.91,15.45,15.48,14.59A22.84,22.84,0,0,1,196.15,51.83Z"/><path d="M209.27,50.07c-10.59,1.63-18.19-9.45-19.52-18.37-.82-5.42,2.93-9.07,6.81-12.55s7.68-6.27,11.21-7.56L207,14.47c-3,1-6.25,3.18-9.42,6s-5.61,6.17-5,10.68c1.11,8,7.29,15.83,16,15A18.76,18.76,0,0,1,209.27,50.07Z"/><path d="M222.39,48.3c-10.79,1.59-18.59-9.89-20.21-18.89-1-5.55,2.07-9.69,5.47-13.5s6.94-6.8,10.48-8.09C218,9.1,218,9.75,217.85,11c-3,1-6,3.33-8.81,6.45s-4.75,6.77-4,11.4c1.37,8.07,7.67,16.2,16.62,15.44A17,17,0,0,1,222.39,48.3Z"/><path d="M235.51,46.53c-11,1.55-19-10.33-20.9-19.4-1.18-5.7,1.21-10.31,4.14-14.46s6.2-7.33,9.73-8.62c.08,1.42.11,2.12.19,3.54-3,1-5.82,3.49-8.21,6.87s-3.9,7.39-3,12.13c1.62,8.16,8.06,16.58,17.2,15.87A15.47,15.47,0,0,1,235.51,46.53Z"/><path d="M248.63,44.76c-11.2,1.5-19.43-10.76-21.58-19.92-1.38-5.83.35-10.92,2.8-15.41s5.45-7.86,9-9.14c.26,1.54.39,2.31.64,3.85-3,1-5.6,3.65-7.6,7.31a17.72,17.72,0,0,0-1.94,12.86c2,8.22,8.38,16.78,17.77,16.28C248.13,42.26,248.63,43.05,248.63,44.76Z"/><path d="M238.84,91.14H155.33C148.5,91.12,140,86.55,140,79.5c0-7.64,9.4-12.87,16.69-13.89L247.8,53.34c10.09-1.13,13.88,9.54,11.53,17.78C256.8,80,249,90.37,238.84,91.14ZM156.59,67.93c-5.62.4-13.41,5.31-13.66,11.36-.22,5.18,5.56,9.62,12.52,9.53l84.21-1.12c8.6-.67,14.58-8.75,16.76-16.38,1.89-6.64-.91-15.77-9.43-14.54Z"/><path d="M155.33,91.14c-6.83,0-15.07-4.29-15.31-11.64-.1-3,1.68-6.17,4.83-8.8a23.91,23.91,0,0,1,11.86-5.09l-.12,2.32A19,19,0,0,0,146.94,72c-2.59,2.15-4,4.7-4,7.28-.06,5.35,5.56,9.62,12.52,9.53Z"/><path d="M167.3,91.14c-7.12,0-14.92-4.92-14.77-12.52.07-3.27,2-6.63,5.22-9.42a23.69,23.69,0,0,1,12-5.35c-.09,1-.13,1.49-.22,2.48a18.83,18.83,0,0,0-9.78,4.29,11.28,11.28,0,0,0-4.33,7.8c-.3,5.74,5.12,10.33,12.09,10.24C167.44,89.65,167.39,90.15,167.3,91.14Z"/><path d="M179.27,91.14c-7.44,0-14.74-5.59-14.22-13.4.23-3.53,2.24-7.08,5.61-10a23.44,23.44,0,0,1,12.17-5.61l-.32,2.64a18.78,18.78,0,0,0-9.91,4.5A12.78,12.78,0,0,0,168,77.54c-.55,6.13,4.67,11,11.64,11Z"/><path d="M191.25,91.14c-7.78,0-14.53-6.32-13.68-14.28.4-3.78,2.52-7.54,6-10.66a23.52,23.52,0,0,1,12.33-5.87c-.17,1.12-.25,1.68-.42,2.8a18.69,18.69,0,0,0-10,4.72,14.33,14.33,0,0,0-5,8.81c-.8,6.53,4.23,11.77,11.19,11.68C191.5,89.46,191.42,90,191.25,91.14Z"/><path d="M203.22,91.14A13.26,13.26,0,0,1,190.08,76a19.35,19.35,0,0,1,6.38-11.29A23.53,23.53,0,0,1,209,58.57c-.2,1.19-.31,1.78-.52,3a18.74,18.74,0,0,0-10.17,4.93A16.11,16.11,0,0,0,193,75.78c-1,6.93,3.79,12.49,10.75,12.4C203.54,89.36,203.43,90,203.22,91.14Z"/><path d="M215.2,91.14c-8.51-.11-14-8-12.6-16a21.66,21.66,0,0,1,6.76-11.91A23.56,23.56,0,0,1,222,56.81c-.24,1.25-.37,1.87-.62,3.12a18.85,18.85,0,0,0-10.3,5.14,18.12,18.12,0,0,0-5.58,9.83c-1.19,6.64,3.26,13.15,10.31,13.12Z"/><path d="M227.17,91.14c-8.87-.16-13.66-8.86-12-16.92a24.24,24.24,0,0,1,7.14-12.53,23.67,23.67,0,0,1,12.81-6.64c-.28,1.32-.43,2-.71,3.28a18.93,18.93,0,0,0-10.44,5.35A20.17,20.17,0,0,0,218,74c-1.36,6.61,2.51,13.84,9.86,13.84C227.6,89.17,227.46,89.83,227.17,91.14Z"/><path d="M239.15,91.14c-9.24-.21-13.3-9.79-11.52-17.8a26.84,26.84,0,0,1,7.53-13.15c3.87-3.78,8.51-6.3,13-6.9-.32,1.38-.49,2.07-.81,3.44a19.1,19.1,0,0,0-10.57,5.56,22.44,22.44,0,0,0-6.21,10.85C229,79.7,232.31,87.66,240,87.7,239.64,89.08,239.47,89.76,239.15,91.14Z"/></g></g></svg>