<svg xmlns="http://www.w3.org/2000/svg" viewBox="0 0 200 71.94"><g id="Layer_2" data-name="Layer 2"><g id="Layer_1-2" data-name="Layer 1"><path d="M63.08,23.51V33.72h1.28V23.51Z"/><path d="M73.24,23.51v8h-.07l-5.59-8H66.34V33.72H67.6v-8h.06l5.6,8H74.5V23.51Z"/><path d="M83.38,23.51v8h-.07l-5.59-8H76.48V33.72h1.26v-8h.06l5.6,8h1.24V23.51Z"/><path d="M94.38,24.76a4,4,0,0,0-2-1.25,5.89,5.89,0,0,0-2.81,0,4,4,0,0,0-2,1.25,5.61,5.61,0,0,0-1.27,3.86,5.58,5.58,0,0,0,1.27,3.85,4.86,4.86,0,0,0,6.89,0,5.58,5.58,0,0,0,1.26-3.85A5.61,5.61,0,0,0,94.38,24.76Zm-1,6.85a3.34,3.34,0,0,1-5,0,4.54,4.54,0,0,1-.91-3,4.57,4.57,0,0,1,.91-3,3.34,3.34,0,0,1,5,0,4.57,4.57,0,0,1,.91,3A4.54,4.54,0,0,1,93.42,31.61Z"/><path d="M103.52,23.51h0l-3,8.66h0l-3-8.66H96.06l3.77,10.21h1.26l3.77-10.21h-1.34Z"/><path d="M109.32,23.51h-1.26l-3.77,10.21h1.34l1-2.92h4.06l1,2.92h1.34ZM107,29.72l1.64-4.66h0l1.64,4.66Z"/><path d="M112.2,23.51v1.14h3.22v9.07h1.28V24.65h3.22V23.51Z"/><path d="M121.27,23.51V33.72h1.27V23.51Z"/><path d="M132.28,24.76a4,4,0,0,0-2-1.25,5.89,5.89,0,0,0-2.81,0,4,4,0,0,0-2,1.25,5.56,5.56,0,0,0-1.27,3.86,5.54,5.54,0,0,0,1.27,3.85,4.85,4.85,0,0,0,6.88,0,5.54,5.54,0,0,0,1.27-3.85A5.56,5.56,0,0,0,132.28,24.76Zm-1,6.85a3.33,3.33,0,0,1-5,0,4.49,4.49,0,0,1-.92-3,4.52,4.52,0,0,1,.92-3,3.33,3.33,0,0,1,5,0,4.58,4.58,0,0,1,.92,3A4.55,4.55,0,0,1,131.32,31.61Z"/><path d="M142,23.51v8H142l-5.59-8h-1.25V33.72h1.26v-8h.07l5.59,8h1.24V23.51Z"/><path d="M149.52,32.58V23.51h-1.27V33.72h6.2V32.58Z"/><path d="M160.07,23.51h-1.26L155,33.72h1.34l1-2.92h4.06l1,2.92h1.34Zm-2.29,6.21,1.64-4.66h0l1.64,4.66Z"/><path d="M171.71,29.16a2.59,2.59,0,0,0-1.66-.82v-.05a2.05,2.05,0,0,0,1.25-.79,2.26,2.26,0,0,0,.51-1.44,2.31,2.31,0,0,0-.81-1.85,3,3,0,0,0-1.92-.7H165V33.72h3.86a3.9,3.9,0,0,0,2.54-.75,2.6,2.6,0,0,0,.92-2.11A2.44,2.44,0,0,0,171.71,29.16ZM170,25a1.39,1.39,0,0,1,.5,1.16,1.47,1.47,0,0,1-.6,1.27,2.88,2.88,0,0,1-1.73.44h-1.91V24.63h2.31A2.21,2.21,0,0,1,170,25Zm.4,7.1a2.79,2.79,0,0,1-1.75.46h-2.39V29h2.27c1.65,0,2.47.59,2.47,1.78A1.6,1.6,0,0,1,170.42,32.14Z"/><path d="M65.5,39a3.78,3.78,0,0,1,.56,0V38A4.59,4.59,0,0,0,65.3,38a2,2,0,0,0-1.51.52,2.13,2.13,0,0,0-.5,1.57v.82h-1v1h1v6.35h1.23V41.88H66v-1H64.51v-.81Q64.51,39,65.5,39Z"/><path d="M72.46,41.77a3.15,3.15,0,0,0-2.47-1,3.19,3.19,0,0,0-2.48,1,4.62,4.62,0,0,0,0,5.56,3.22,3.22,0,0,0,2.48,1,3.16,3.16,0,0,0,2.47-1,4.57,4.57,0,0,0,0-5.55Zm-.9,4.79a2.08,2.08,0,0,1-3.14,0,3.7,3.7,0,0,1,0-4,2.07,2.07,0,0,1,3.14,0,3.72,3.72,0,0,1,0,4Z"/><path d="M77.61,40.74a1.87,1.87,0,0,0-1.12.35,1.83,1.83,0,0,0-.66,1h0V40.86H74.64v7.37h1.23V43.64a1.76,1.76,0,0,1,.43-1.25,1.47,1.47,0,0,1,1.15-.48,2.41,2.41,0,0,1,.66.07V40.79A3,3,0,0,0,77.61,40.74Z"/><path d="M82.27,38V48.23h1.28V38Z"/><path d="M92.43,38v8h-.07l-5.59-8H85.53V48.23h1.26v-8h.07l5.59,8h1.24V38Z"/><path d="M101.88,39.16V38H95.67V48.23H97V43.8h4.52V42.67H97V39.16Z"/><path d="M108.36,44a2.82,2.82,0,0,0,1.51-1.09,3.08,3.08,0,0,0,.55-1.84,2.91,2.91,0,0,0-.89-2.22,3.34,3.34,0,0,0-2.37-.83h-3.83V48.23h1.27v-4h2.45l2.19,4h1.49Zm-3.76-.93V39.14H107a2.22,2.22,0,0,1,1.55.52,1.86,1.86,0,0,1,.56,1.44,1.93,1.93,0,0,1-.53,1.45,2.13,2.13,0,0,1-1.52.51Z"/><path d="M116.23,38H115L111.2,48.23h1.34l1-2.92h4.06l1,2.92H120Zm-2.29,6.21,1.64-4.66h0l1.64,4.66Z"/><path d="M127.6,43.61a4.94,4.94,0,0,0-2.28-1.06l-1.07-.28a4.28,4.28,0,0,1-1.5-.64,1.2,1.2,0,0,1-.46-1,1.46,1.46,0,0,1,.63-1.22,3.05,3.05,0,0,1,3.24,0,1.8,1.8,0,0,1,.71,1.3h1.27a2.66,2.66,0,0,0-1-2.1,3.8,3.8,0,0,0-2.52-.82,4,4,0,0,0-2.6.81,2.54,2.54,0,0,0-1,2.08,2.3,2.3,0,0,0,.65,1.69,4.54,4.54,0,0,0,2.07,1l1.31.34a3.76,3.76,0,0,1,1.5.68,1.36,1.36,0,0,1,.48,1.07,1.49,1.49,0,0,1-.68,1.24,2.81,2.81,0,0,1-1.71.49,3.15,3.15,0,0,1-1.82-.5,1.81,1.81,0,0,1-.81-1.33h-1.28a2.9,2.9,0,0,0,1.13,2.17,4.18,4.18,0,0,0,2.66.81,4.35,4.35,0,0,0,2.79-.82,2.66,2.66,0,0,0,1-2.22A2.29,2.29,0,0,0,127.6,43.61Z"/><path d="M129.14,38v1.15h3.22v9.07h1.28V39.16h3.22V38Z"/><path d="M143.24,44a2.82,2.82,0,0,0,1.51-1.09,3.08,3.08,0,0,0,.55-1.84,2.91,2.91,0,0,0-.89-2.22A3.34,3.34,0,0,0,142,38h-3.83V48.23h1.27v-4h2.45l2.18,4h1.5Zm-3.76-.93V39.14h2.39a2.22,2.22,0,0,1,1.55.52A1.86,1.86,0,0,1,144,41.1a1.93,1.93,0,0,1-.53,1.45,2.13,2.13,0,0,1-1.52.51Z"/><path d="M153.74,38v6.55a2.6,2.6,0,0,1-.74,1.92,3.2,3.2,0,0,1-4.09,0,2.6,2.6,0,0,1-.74-1.92V38H146.9v6.64A3.59,3.59,0,0,0,148,47.36a4.75,4.75,0,0,0,5.93,0A3.59,3.59,0,0,0,155,44.65V38Z"/><path d="M163.11,46.71a3.39,3.39,0,0,1-1.9.51,2.94,2.94,0,0,1-2.41-1.11,4.67,4.67,0,0,1-.89-3,4.65,4.65,0,0,1,.9-3A2.93,2.93,0,0,1,161.2,39a3.1,3.1,0,0,1,1.9.6,2.79,2.79,0,0,1,1.06,1.61h1.28a3.76,3.76,0,0,0-1.4-2.46,4.41,4.41,0,0,0-2.84-.93,4.26,4.26,0,0,0-3.35,1.43,5.68,5.68,0,0,0-1.25,3.85A5.71,5.71,0,0,0,157.84,47a4.24,4.24,0,0,0,3.36,1.43,4.57,4.57,0,0,0,2.79-.81,3.83,3.83,0,0,0,1.45-2.34h-1.28A2.63,2.63,0,0,1,163.11,46.71Z"/><path d="M165.81,38v1.15H169v9.07h1.27V39.16h3.22V38Z"/><path d="M181.72,38v6.55a2.6,2.6,0,0,1-.74,1.92,2.72,2.72,0,0,1-2,.74,2.76,2.76,0,0,1-2.05-.74,2.6,2.6,0,0,1-.74-1.92V38h-1.27v6.64A3.59,3.59,0,0,0,176,47.36a4.75,4.75,0,0,0,5.93,0A3.59,3.59,0,0,0,183,44.65V38Z"/><path d="M190,44a2.86,2.86,0,0,0,1.51-1.09,3.08,3.08,0,0,0,.55-1.84,2.91,2.91,0,0,0-.89-2.22,3.34,3.34,0,0,0-2.37-.83H185V48.23h1.27v-4h2.45l2.19,4h1.49Zm-3.76-.93V39.14h2.39a2.22,2.22,0,0,1,1.55.52,1.86,1.86,0,0,1,.56,1.44,1.93,1.93,0,0,1-.53,1.45,2.13,2.13,0,0,1-1.52.51Z"/><path d="M200,39.16V38h-6.33V48.23H200V47.08h-5.06V43.57h4.8V42.44h-4.8V39.16Z"/><path d="M70.06,53.86a4.63,4.63,0,0,0-3.54-1.35H63.08V62.73h3.44a6.36,6.36,0,0,0,1.1-.09,4.23,4.23,0,0,0,2.45-1.26,5.25,5.25,0,0,0,1.27-3.76A5.27,5.27,0,0,0,70.06,53.86Zm-1,6.7a3.4,3.4,0,0,1-2.67,1H64.36V53.66h2.07a3.4,3.4,0,0,1,2.67,1,5.05,5.05,0,0,1,0,5.87Z"/><path d="M79.25,53.66V52.51H72.92V62.73h6.33V61.59H74.19V58.07H79V56.94h-4.8V53.66Z"/><path d="M87.57,52.51l-3,8.67h0l-3-8.67H80.11l3.74,10.13,0,.09h1.26l0-.09,3.74-10.13Z"/><path d="M96.41,53.66V52.51H90.08V62.73h6.33V61.59H91.35V58.07h4.8V56.94h-4.8V53.66Z"/><path d="M99.36,61.59V52.51H98.09V62.73h6.2V61.59Z"/><path d="M113,53.77a4.85,4.85,0,0,0-6.88,0,5.56,5.56,0,0,0-1.27,3.86,5.54,5.54,0,0,0,1.27,3.85,4,4,0,0,0,1.75,1.16,3.88,3.88,0,0,0,.71.18,5.19,5.19,0,0,0,1,.08,5.29,5.29,0,0,0,1-.08,4.35,4.35,0,0,0,.71-.18A3.94,3.94,0,0,0,113,61.48a5.54,5.54,0,0,0,1.27-3.85A5.56,5.56,0,0,0,113,53.77Zm-1,6.85a3.33,3.33,0,0,1-5,0,5.34,5.34,0,0,1,0-6,3.33,3.33,0,0,1,5,0,5.34,5.34,0,0,1,0,6Z"/><path d="M121.88,53.43a3.2,3.2,0,0,0-2.36-.92h-3.64V62.73h1.27V59.09h2.36a3.15,3.15,0,0,0,3.29-3.3A3.2,3.2,0,0,0,121.88,53.43Zm-1,4a2.35,2.35,0,0,1-1.69.57h-2v-4.3h2a2.42,2.42,0,0,1,1.7.56,2.38,2.38,0,0,1,0,3.17Z"/><path d="M132.85,52.51,129.32,61h-.06l-3.52-8.53h-1.48V62.73h1.19V54.86h0l3.24,7.78v0h1.08v0l3.25-7.78h0v7.87h1.19V52.51Z"/><path d="M142.64,53.66V52.51h-6.33V62.73h6.33V61.59h-5V58.07h4.79V56.94h-4.79V53.66Z"/><path d="M151.22,52.51v8h-.07l-5.59-8h-1.24V62.73h1.26v-8h.06l5.54,7.9.06.09h1.24V52.51Z"/><path d="M153.82,52.51v1.15h3.23v9.07h1.27V53.66h3.22V52.51Z"/><path d="M30.9,6a4.37,4.37,0,0,0-.72-.06,3.74,3.74,0,0,0-.89.1,4.08,4.08,0,0,0-3.08,4,4.24,4.24,0,0,0,.64,2.23,4.07,4.07,0,0,1-3.24-4A4.12,4.12,0,0,1,24.25,6l3.32-6L30.9,6Z"/><path d="M23.19,6.73a4,4,0,0,0-.29.67,4.44,4.44,0,0,0-.18.88,4.1,4.1,0,0,0,2.85,4.17,4.24,4.24,0,0,0,2.31.08,4.05,4.05,0,0,1-4.83,1.84,4.14,4.14,0,0,1-1.92-1.3l-4.63-5,6.68-1.33Z"/><path d="M21.54,14.32a4.2,4.2,0,0,0,.54.48,4.32,4.32,0,0,0,.78.44,4.07,4.07,0,0,0,4.83-1.42,4.23,4.23,0,0,0,.79-2.18,4.15,4.15,0,0,1-1.57,6.6L20.73,21.1l.8-6.78Z"/><path d="M28.22,18.24a4,4,0,0,0,.63-.37,3.76,3.76,0,0,0,.65-.61,4.07,4.07,0,0,0,.15-5,4.12,4.12,0,0,0-1.82-1.43,4,4,0,0,1,5,1.35,4.16,4.16,0,0,1,.8,2.18l.8,6.78-6.18-2.86Z"/><path d="M34,13.08a3.47,3.47,0,0,0-.16-.71,3.8,3.8,0,0,0-.37-.82,4.14,4.14,0,0,0-6.66-.4,4.06,4.06,0,0,1,2.82-4.33A4.18,4.18,0,0,1,32,6.73l6.68,1.33-4.63,5Z"/><polygon points="31.05 71.94 24.1 71.94 24.31 65.82 25.89 20.1 27.57 19.32 29.25 20.1 30.83 65.82 31.05 71.94"/><path d="M24.51,20.74,24.05,34.2l0,.74a100.32,100.32,0,0,1-3.28,22,94.22,94.22,0,0,1-5.35,15H0A62,62,0,0,0,20.74,25.25V22.49l3.36-1.56Z"/><path d="M30.63,20.74,31.1,34.2l0,.74A100.32,100.32,0,0,0,34.4,57a94.22,94.22,0,0,0,5.35,15H55.14A62,62,0,0,1,34.4,25.25V22.49L31,20.93Z"/></g></g></svg>