<?xml version="1.0" encoding="UTF-8"?>
<svg id="Layer_2" data-name="Layer 2" xmlns="http://www.w3.org/2000/svg" viewBox="0 0 500 231.06">
  <g id="Layer_1-2" data-name="Layer 1">
    <g>
      <g>
        <path d="M20.77,181.36H0v48.7h8.88v-19.1h11.89c10.32,0,16.24-5.4,16.24-14.83s-5.92-14.76-16.24-14.76ZM8.88,189.04h11.56c5.24,0,7.68,2.25,7.68,7.08s-2.44,7.08-7.68,7.08h-11.56v-14.16Z"/>
        <rect x="42.15" y="181.36" width="8.88" height="48.7"/>
        <polygon points="100.58 230.06 90.14 230.06 74.7 208.36 67.87 215.68 67.87 230.06 58.98 230.06 58.98 181.36 67.87 181.36 67.87 204.21 88.84 181.36 99.6 181.36 80.56 202.11 100.58 230.06"/>
        <polygon points="161.99 181.36 149.8 230.06 140.72 230.06 131.2 193.77 121.74 230.06 112.59 230.06 100.47 181.36 109.59 181.36 117.47 217.11 126.76 181.36 135.63 181.36 144.99 217.12 152.87 181.36 161.99 181.36"/>
        <polygon points="202.4 222.38 202.4 230.06 166.27 230.06 166.27 181.36 201.74 181.36 201.74 189.04 175.15 189.04 175.15 201.07 198.46 201.07 198.46 208.82 175.15 208.82 175.15 222.38 202.4 222.38"/>
        <polygon points="258.12 222.38 258.12 230.06 221.98 230.06 221.98 181.36 257.45 181.36 257.45 189.04 230.86 189.04 230.86 201.07 254.18 201.07 254.18 208.82 230.86 208.82 230.86 222.38 258.12 222.38"/>
        <path d="M300.8,216.63c0,8.76-7.16,14.43-18.24,14.43-12.61,0-21.06-6.81-21.51-17.35l-.03-.49h8.88l.03.44c.41,6.22,4.9,9.65,12.63,9.65,5.95,0,9.35-2.31,9.35-6.35,0-5.37-3.85-6.33-13.14-8.63-8.27-2.06-15.92-5.23-15.92-14.28,0-8.58,6.51-13.69,17.43-13.69s18.58,6.03,19.24,15.73l.03.5h-8.86l-.05-.41c-.71-5.43-4.11-8.08-10.35-8.08-5.4,0-8.62,1.95-8.62,5.21,0,4.67,3.81,5.62,10.14,7.2l.66.16c9.83,2.51,18.32,4.68,18.32,15.95Z"/>
        <polygon points="341.28 181.36 341.28 189.04 326.05 189.04 326.05 230.06 317.17 230.06 317.17 189.04 301.87 189.04 301.87 181.36 341.28 181.36"/>
        <path d="M363.45,181.36h-9l-17.92,48.7h9.09l3.87-11.29h18.84l3.87,11.29h9.08l-17.84-48.7ZM352.02,211.22l6.97-20.83,6.9,20.83h-13.87Z"/>
        <polygon points="416.03 181.36 416.03 189.04 400.8 189.04 400.8 230.06 391.92 230.06 391.92 189.04 376.61 189.04 376.61 181.36 416.03 181.36"/>
        <polygon points="457.31 222.38 457.31 230.06 421.18 230.06 421.18 181.36 456.65 181.36 456.65 189.04 430.06 189.04 430.06 201.07 453.37 201.07 453.37 208.82 430.06 208.82 430.06 222.38 457.31 222.38"/>
        <path d="M500,216.63c0,8.76-7.16,14.43-18.24,14.43-12.61,0-21.06-6.81-21.51-17.35l-.03-.49h8.88l.03.44c.41,6.22,4.9,9.65,12.63,9.65,5.94,0,9.35-2.31,9.35-6.35,0-5.37-3.85-6.33-13.14-8.63-8.27-2.06-15.93-5.23-15.93-14.28,0-8.58,6.52-13.69,17.44-13.69s18.58,6.03,19.24,15.73l.03.5h-8.86l-.05-.41c-.72-5.43-4.11-8.08-10.35-8.08-5.4,0-8.62,1.95-8.62,5.21,0,4.67,3.81,5.62,10.14,7.2l.66.16c9.83,2.51,18.32,4.68,18.32,15.95Z"/>
      </g>
      <g>
        <g>
          <polygon points="243.99 126.25 243.99 144.29 177.86 144.29 177.86 87.62 195.89 72.15 195.89 126.25 243.99 126.25"/>
          <polygon points="243.99 0 243.99 18.04 195.89 18.04 195.89 72.13 177.86 56.67 177.86 0 243.99 0"/>
        </g>
        <g>
          <polygon points="256.01 126.25 256.01 144.29 322.14 144.29 322.14 87.62 304.11 72.15 304.11 126.25 256.01 126.25"/>
          <polygon points="256.01 0 256.01 18.04 304.11 18.04 304.11 72.13 322.14 56.67 322.14 0 256.01 0"/>
        </g>
        <rect x="213.93" y="36.07" width="72.14" height="72.14"/>
        <line x1="195.91" y1="72.14" x2="195.89" y2="72.13"/>
        <line x1="195.91" y1="72.14" x2="195.89" y2="72.15"/>
      </g>
    </g>
  </g>
</svg>