<?xml version="1.0" encoding="UTF-8"?>
<svg id="Layer_2" data-name="Layer 2" xmlns="http://www.w3.org/2000/svg" viewBox="0 0 400 104">
  <g id="Layer_1-2" data-name="Layer 1">
    <g>
      <path d="M52,104c28.72,0,52-23.28,52-52C104,23.29,80.72,0,52,0,23.28,0,0,23.29,0,52c0,28.72,23.28,52,52,52ZM89.88,44.82c10.05,17.41,4.09,39.66-13.32,49.72l-4.09-7.09c15.07-8.72,19.98-28.44,10.96-44.07-6.15-10.66-17.21-16.65-28.41-16.61,13.69-1.27,27.53,5.34,34.87,18.04ZM52,74.91c-12.65,0-22.91-10.26-22.91-22.91,0-12.65,10.26-22.91,22.91-22.91s22.91,10.26,22.91,22.91c0,12.66-10.26,22.91-22.91,22.91ZM26.84,22.78C36.89,5.37,59.15-.59,76.55,9.46l-4.09,7.09c-15.08-8.69-34.63-3.08-43.64,12.54-6.16,10.66-5.82,23.23-.18,32.91-7.95-11.23-9.14-26.51-1.81-39.21ZM43.74,83.53c12.31,0,23.03-6.58,28.59-16.3-5.75,12.5-18.39,21.17-33.06,21.17-20.1,0-36.39-16.29-36.39-36.39h8.18c.02,17.4,14.65,31.52,32.69,31.52Z"/>
      <g>
        <g>
          <path d="M132.08,69.93V7h28.32c4.55,0,8.6.96,12.14,2.88,3.54,1.92,6.29,4.54,8.27,7.87,1.98,3.33,2.97,7.09,2.97,11.28s-.99,7.96-2.97,11.28-4.74,5.95-8.27,7.87c-3.54,1.92-7.58,2.88-12.14,2.88h-11.24v18.88h-17.08ZM159.5,35.77c1.98,0,3.67-.67,5.08-2.02,1.41-1.35,2.11-2.92,2.11-4.72s-.7-3.37-2.11-4.72c-1.41-1.35-3.1-2.02-5.08-2.02h-10.34v13.49h10.34Z"/>
          <path d="M207.6,69.93h-17.08V7h17.08v62.93Z"/>
          <path d="M254.53,69.93h-19.24l-22.3-62.93h18.25l13.58,43.51h.36l13.85-43.51h17.8l-22.3,62.93Z"/>
          <path d="M293.95,67.28c-5.37-2.97-9.56-6.98-12.59-12.05-3.03-5.06-4.54-10.65-4.54-16.77s1.51-11.7,4.54-16.77c3.03-5.06,7.22-9.08,12.59-12.05,5.36-2.97,11.34-4.45,17.94-4.45s12.57,1.48,17.94,4.45c5.36,2.97,9.56,6.98,12.59,12.05,3.03,5.07,4.54,10.65,4.54,16.77s-1.51,11.7-4.54,16.77c-3.03,5.07-7.22,9.08-12.59,12.05-5.36,2.97-11.34,4.45-17.94,4.45s-12.57-1.48-17.94-4.45ZM320.75,53.66c2.67-1.56,4.78-3.67,6.34-6.34s2.34-5.62,2.34-8.86-.78-6.19-2.34-8.86c-1.56-2.67-3.67-4.78-6.34-6.34-2.67-1.56-5.62-2.34-8.86-2.34s-6.19.78-8.86,2.34c-2.67,1.56-4.78,3.67-6.34,6.34-1.56,2.67-2.34,5.62-2.34,8.86s.78,6.19,2.34,8.86,3.67,4.78,6.34,6.34c2.67,1.56,5.62,2.34,8.86,2.34s6.19-.78,8.86-2.34Z"/>
          <path d="M382.47,69.93h-17.08V23.18h-17.53V7h52.15v16.18h-17.53v46.75Z"/>
        </g>
        <g>
          <path d="M144.42,98.51h-12.34v-16.84h12.1v2.72h-9.1v4.09h7.17v2.69h-7.17v4.62h9.34v2.72Z"/>
          <path d="M160.54,98.51h-2.98v-16.84h2.69l8.83,11.74h.07v-11.74h3.01v16.84h-2.72l-8.81-11.74h-.1v11.74Z"/>
          <path d="M189.77,97.63c-1.37-.78-2.45-1.83-3.24-3.16-.79-1.33-1.18-2.79-1.18-4.38s.39-3.05,1.18-4.38c.79-1.33,1.86-2.38,3.24-3.16,1.37-.78,2.9-1.17,4.58-1.17,1.56,0,2.93.32,4.11.95,1.19.63,2.15,1.39,2.89,2.27l-2.07,1.78c-.62-.67-1.32-1.22-2.09-1.64-.77-.42-1.72-.62-2.84-.62s-2.09.26-3.01.79-1.64,1.25-2.16,2.16c-.53.92-.79,1.92-.79,3.01s.26,2.09.79,3.01c.53.92,1.25,1.64,2.16,2.17s1.92.79,3.01.79c.93,0,1.78-.17,2.56-.52s1.36-.73,1.75-1.14v-2.38h-3.54v-2.5h6.52v6.04c-.4.51-.96,1.02-1.68,1.52-.72.5-1.57.91-2.54,1.24-.97.33-1.99.49-3.07.49-1.68,0-3.21-.39-4.58-1.17Z"/>
          <path d="M218.07,98.51h-3.01v-16.84h3.01v16.84Z"/>
          <path d="M235.32,98.51h-2.98v-16.84h2.7l8.83,11.74h.07v-11.74h3.01v16.84h-2.72l-8.81-11.74h-.1v11.74Z"/>
          <path d="M273.53,98.51h-12.34v-16.84h12.1v2.72h-9.1v4.09h7.17v2.69h-7.17v4.62h9.34v2.72Z"/>
          <path d="M299.01,98.51h-12.34v-16.84h12.1v2.72h-9.1v4.09h7.17v2.69h-7.17v4.62h9.34v2.72Z"/>
          <path d="M325.55,98.51h-3.35l-3.35-6.09h-3.71v6.09h-3.01v-16.84h7.17c1.09,0,2.06.24,2.91.71s1.52,1.12,2,1.94c.48.82.72,1.73.72,2.74,0,1.09-.28,2.07-.83,2.94-.55.87-1.31,1.51-2.27,1.93l3.71,6.59ZM315.16,84.38v5.32h4.12c.79,0,1.43-.25,1.92-.75.5-.5.75-1.13.75-1.9s-.25-1.43-.75-1.92-1.14-.75-1.92-.75h-4.12Z"/>
          <path d="M341.65,98.51h-3.01v-16.84h3.01v16.84Z"/>
          <path d="M358.9,98.51h-2.98v-16.84h2.69l8.83,11.74h.07v-11.74h3.01v16.84h-2.72l-8.81-11.74h-.1v11.74Z"/>
          <path d="M388.13,97.63c-1.37-.78-2.45-1.83-3.24-3.16-.79-1.33-1.18-2.79-1.18-4.38s.39-3.05,1.18-4.38c.79-1.33,1.86-2.38,3.24-3.16,1.37-.78,2.9-1.17,4.58-1.17,1.56,0,2.93.32,4.11.95,1.19.63,2.15,1.39,2.89,2.27l-2.07,1.78c-.63-.67-1.32-1.22-2.09-1.64-.77-.42-1.72-.62-2.84-.62s-2.09.26-3.01.79-1.64,1.25-2.17,2.16c-.53.92-.79,1.92-.79,3.01s.26,2.09.79,3.01c.53.92,1.25,1.64,2.17,2.17s1.92.79,3.01.79c.93,0,1.78-.17,2.56-.52s1.36-.73,1.74-1.14v-2.38h-3.54v-2.5h6.52v6.04c-.4.51-.96,1.02-1.68,1.52-.72.5-1.57.91-2.54,1.24-.97.33-1.99.49-3.07.49-1.68,0-3.21-.39-4.58-1.17Z"/>
        </g>
      </g>
    </g>
  </g>
</svg>