<svg width="103" height="50" viewBox="0 0 103 50" fill="none" xmlns="http://www.w3.org/2000/svg">
<g clip-path="url(#clip0_511_538)">
<path d="M65.7233 13.2612H65.7013C65.5924 12.5238 65.4258 11.796 65.2029 11.0846C65.1836 9.16782 64.5271 7.31194 63.3369 5.80929C62.1468 4.30665 60.4905 3.24264 58.6291 2.78487H58.5998C58.0264 2.45238 57.4315 2.15858 56.8189 1.90542C56.6612 1.83908 56.5112 1.75552 56.3719 1.65625C54.8637 0.555429 53.0392 -0.0267454 51.1722 -0.00296129C49.3051 0.0208228 47.4961 0.649284 46.0164 1.78816V1.81381C45.402 2.05251 44.8045 2.33287 44.2282 2.65295C44.078 2.73611 43.918 2.80012 43.7519 2.8435C41.9457 3.33432 40.3477 4.39811 39.1979 5.87496C38.0481 7.35182 37.4088 9.16195 37.3759 11.0333V11.059C37.1769 11.6873 37.0226 12.3289 36.9142 12.9791C36.8868 13.148 36.8388 13.3129 36.7713 13.4701C36.0328 15.1873 35.8711 17.0977 36.3104 18.9146C36.7498 20.7316 37.7665 22.357 39.2081 23.547H39.2484C39.6689 24.1617 40.1369 24.7424 40.6482 25.2839C41.5003 27.0001 42.8985 28.3845 44.623 29.2195C46.3476 30.0546 48.3007 30.293 50.1755 29.8974H50.1974C50.5639 29.9267 50.9303 29.9413 51.3151 29.9413C51.6009 29.9413 51.883 29.9413 52.1652 29.9157L52.6855 29.9487C54.523 30.2878 56.421 30.0214 58.0941 29.1895C59.7672 28.3576 61.1251 27.0051 61.9637 25.3352V25.2839C62.4684 24.7429 62.9303 24.1634 63.3451 23.5507C64.8276 22.3406 65.866 20.6722 66.2971 18.8077C66.7283 16.9432 66.5277 14.9883 65.7269 13.2502L65.7233 13.2612ZM62.7258 17.9809C62.4289 19.2512 62.4289 20.5728 62.7258 21.8431C62.8031 22.1567 62.8103 22.4834 62.7469 22.8001C62.6836 23.1167 62.5513 23.4156 62.3594 23.6753C62.1908 23.8988 62.0186 24.1187 61.8391 24.3312C61.6296 24.5741 61.3695 24.7681 61.077 24.8998C60.7846 25.0314 60.4668 25.0975 60.1461 25.0934C58.8423 25.0914 57.5548 25.3844 56.3802 25.9504C55.2056 26.5165 54.1743 27.3409 53.3634 28.362C53.1682 28.6164 52.9191 28.8246 52.6341 28.9715C52.349 29.1185 52.035 29.2007 51.7145 29.2121H51.2967H50.879C50.5585 29.2007 50.2445 29.1185 49.9594 28.9715C49.6744 28.8246 49.4253 28.6164 49.2301 28.362C48.4212 27.3407 47.3912 26.5163 46.2176 25.9507C45.044 25.3852 43.7574 25.0933 42.4547 25.0971C42.1334 25.1017 41.8149 25.0359 41.5218 24.9042C41.2287 24.7725 40.968 24.5782 40.7581 24.3349C40.5785 24.1224 40.3916 23.9062 40.2377 23.6826C40.0459 23.4229 39.9135 23.1241 39.8502 22.8074C39.7869 22.4907 39.7941 22.164 39.8713 21.8505C40.1686 20.5703 40.1682 19.2389 39.8703 17.9589C39.5724 16.6788 38.9848 15.4842 38.1527 14.4668C37.9597 14.223 37.8229 13.9396 37.7519 13.6368C37.681 13.3341 37.6777 13.0194 37.7423 12.7152C37.7985 12.4416 37.8608 12.1705 37.9292 11.9018C38.013 11.5926 38.1633 11.3056 38.3697 11.0606C38.576 10.8157 38.8334 10.6188 39.1238 10.4837C40.301 9.92307 41.3351 9.10184 42.1478 8.08221C42.9604 7.06257 43.5303 5.87131 43.8141 4.59872C43.8788 4.28642 44.0106 3.99193 44.2004 3.73566C44.3902 3.4794 44.6335 3.26749 44.9135 3.11466C45.159 2.9864 45.4081 2.86548 45.6463 2.74822C45.9404 2.61946 46.2591 2.55668 46.5801 2.56427C46.9011 2.57187 47.2165 2.64967 47.5041 2.79219C48.6854 3.37178 49.9847 3.67026 51.3004 3.66431C52.6059 3.66598 53.8944 3.36892 55.0674 2.79586C55.3552 2.6522 55.6712 2.57347 55.9928 2.56524C56.3144 2.55701 56.634 2.61947 56.9288 2.74822C57.1731 2.8606 57.4174 2.98274 57.6617 3.11466C57.943 3.26353 58.1886 3.47169 58.3815 3.72475C58.5745 3.97781 58.7102 4.26975 58.7793 4.5804C59.0659 5.8524 59.6371 7.04286 60.4502 8.06219C61.2633 9.08152 62.2969 9.90318 63.4734 10.4653C63.7648 10.6004 64.0232 10.7977 64.2302 11.0433C64.4372 11.289 64.5879 11.577 64.6716 11.8871C64.7412 12.1509 64.8035 12.4221 64.8548 12.6933C64.9149 13.009 64.905 13.334 64.8259 13.6455C64.7467 13.957 64.6003 14.2473 64.3968 14.4961C63.5785 15.5133 63.0066 16.706 62.7258 17.9809Z" fill="black"/>
<path d="M0 37.8197H5.61011C6.61767 37.7696 7.61242 38.0628 8.43166 38.6515C8.78944 38.944 9.0722 39.3178 9.2564 39.7416C9.44059 40.1655 9.52091 40.6272 9.49066 41.0883C9.49448 41.5721 9.38928 42.0505 9.18285 42.4881C8.98545 42.9162 8.65691 43.2705 8.24478 43.4995C8.75605 43.7299 9.18264 44.1142 9.46501 44.5988C9.74732 45.0918 9.89516 45.6503 9.89373 46.2184C9.89373 47.38 9.5273 48.2668 8.76512 48.8787C7.90512 49.5219 6.84756 49.8446 5.77501 49.7911H0V37.8197ZM7.09051 42.3012C7.24085 42.167 7.35836 42.0001 7.43396 41.8133C7.50957 41.6265 7.54125 41.4249 7.52657 41.2239C7.54413 41.0072 7.50974 40.7894 7.42625 40.5887C7.34276 40.3879 7.21259 40.21 7.04654 40.0696C6.59161 39.7886 6.05883 39.6602 5.52583 39.7032H1.91645V42.6603H5.67974C6.17691 42.7017 6.67361 42.5752 7.09051 42.3012ZM7.43129 47.5266C7.62185 47.3697 7.77072 47.1683 7.86469 46.94C7.95866 46.7118 7.99482 46.4639 7.96995 46.2184C7.96995 45.0898 7.27495 44.5255 5.88494 44.5255H1.91645V47.9113H5.69439C6.29875 47.9588 6.90353 47.8249 7.43129 47.5266Z" fill="black"/>
<path d="M10.502 41.1212H12.4184V42.7811C12.6474 42.2431 13.0297 41.7843 13.5177 41.462C13.9513 41.1623 14.4576 40.9851 14.9834 40.949V42.8141C14.583 42.7877 14.1831 42.874 13.8292 43.0633C13.427 43.2656 13.0818 43.5655 12.8251 43.9354C12.551 44.3159 12.4071 44.7747 12.4147 45.2436V49.791H10.502V41.1212Z" fill="black"/>
<path d="M15.5293 41.1212H17.4457V49.7911H15.5293V41.1212Z" fill="black"/>
<path d="M18.2148 41.1212H20.1313V42.8141C20.372 42.261 20.7598 41.7844 21.2526 41.4363C21.6905 41.1244 22.2136 40.9543 22.7513 40.949C23.1768 40.9241 23.6016 41.0076 23.9861 41.1915C24.3706 41.3754 24.7022 41.6538 24.9499 42.0007C25.4794 42.8471 25.7353 43.8361 25.6828 44.8332V49.7911H23.7737V45.141C23.8134 44.5258 23.6414 43.9154 23.2863 43.4114C23.1237 43.2145 22.9176 43.0581 22.6842 42.9545C22.4508 42.8508 22.1966 42.8028 21.9415 42.8141C21.6885 42.8067 21.4375 42.8604 21.2097 42.9708C20.982 43.0812 20.7842 43.2449 20.6333 43.4481C20.2947 43.9264 20.1257 44.5043 20.1533 45.0897V49.7911H18.2295L18.2148 41.1212Z" fill="black"/>
<path d="M28.4618 49.3806C27.7915 49.0122 27.2399 48.4606 26.8715 47.7903C26.4891 47.075 26.2891 46.2764 26.2891 45.4653C26.2891 44.6542 26.4891 43.8556 26.8715 43.1403C27.2399 42.47 27.7915 41.9184 28.4618 41.5499C29.144 41.1795 29.9079 40.9855 30.6842 40.9855C31.4605 40.9855 32.2244 41.1795 32.9066 41.5499C33.5734 41.9182 34.1241 42.4651 34.497 43.1293C34.8796 43.8465 35.0798 44.6469 35.0798 45.4598C35.0798 46.2727 34.8796 47.0731 34.497 47.7903C34.1267 48.4592 33.5756 49.0104 32.9066 49.3806C32.2244 49.7511 31.4605 49.9451 30.6842 49.9451C29.9079 49.9451 29.144 49.7511 28.4618 49.3806ZM31.9319 47.783C32.3132 47.5555 32.6269 47.2304 32.8407 46.8412C33.0723 46.4208 33.1898 45.9471 33.1815 45.4671C33.1899 44.9811 33.0752 44.5008 32.848 44.071C32.6374 43.6795 32.323 43.3537 31.9392 43.1293C31.5564 42.9108 31.1232 42.7959 30.6824 42.7959C30.2416 42.7959 29.8084 42.9108 29.4255 43.1293C29.0436 43.3548 28.7306 43.6805 28.5204 44.071C28.2915 44.5001 28.1767 44.9809 28.187 45.4671C28.178 45.9462 28.2929 46.4195 28.5204 46.8412C28.7296 47.2326 29.0428 47.5585 29.4255 47.783C29.8069 48.0051 30.2411 48.1203 30.6824 48.1164C31.1216 48.1217 31.5538 48.0064 31.9319 47.783Z" fill="black"/>
<path d="M34.3789 41.1212H36.4309L38.8238 46.6177L41.2202 41.1212H43.2723L39.542 49.7911H38.0762L34.3789 41.1212Z" fill="black"/>
<path d="M44.724 49.3807C44.0559 49.0094 43.505 48.4585 43.1337 47.7904C42.7535 47.0744 42.5547 46.2761 42.5547 45.4654C42.5547 44.6547 42.7535 43.8564 43.1337 43.1404C43.505 42.4723 44.0559 41.9214 44.724 41.55C45.4068 41.1796 46.1714 40.9856 46.9482 40.9856C47.7251 40.9856 48.4897 41.1796 49.1725 41.55C49.8385 41.9192 50.3891 42.4659 50.7628 43.1294C51.1455 43.8466 51.3457 44.647 51.3457 45.4599C51.3457 46.2728 51.1455 47.0732 50.7628 47.7904C50.3915 48.4585 49.8406 49.0094 49.1725 49.3807C48.4897 49.7512 47.7251 49.9452 46.9482 49.9452C46.1714 49.9452 45.4068 49.7512 44.724 49.3807ZM48.1978 47.7831C48.5789 47.5565 48.8916 47.2311 49.1029 46.8414C49.3356 46.4212 49.4544 45.9475 49.4473 45.4672C49.4558 44.9812 49.3411 44.5009 49.1139 44.0711C48.9022 43.6804 48.588 43.3548 48.2051 43.1294C47.8223 42.9109 47.3891 42.796 46.9482 42.796C46.5074 42.796 46.0742 42.9109 45.6914 43.1294C45.3087 43.3539 44.9954 43.6798 44.7863 44.0711C44.5574 44.5002 44.4426 44.981 44.4528 45.4672C44.4439 45.9463 44.5588 46.4196 44.7863 46.8414C44.9943 47.2335 45.3078 47.5596 45.6914 47.7831C46.0725 48.0057 46.5069 48.1209 46.9482 48.1165C47.3874 48.1218 47.8196 48.0065 48.1978 47.7831Z" fill="black"/>
<path d="M54.2686 49.2451C53.523 48.773 52.9289 48.0963 52.5574 47.2957C52.1461 46.4064 51.9419 45.4354 51.9601 44.4558V37.8197H53.8912V44.4412C53.8912 45.6235 54.1587 46.5176 54.6937 47.1235C54.9783 47.4115 55.3172 47.6402 55.6909 47.7963C56.0645 47.9524 56.4654 48.0328 56.8703 48.0328C57.2753 48.0328 57.6762 47.9524 58.0498 47.7963C58.4234 47.6402 58.7624 47.4115 59.0469 47.1235C59.5893 46.5189 59.8604 45.6321 59.8604 44.4558V37.8197H61.7915V44.4558C61.8093 45.4362 61.6024 46.4076 61.1869 47.2957C60.8105 48.0953 60.2144 48.7714 59.4683 49.2451C58.6786 49.7037 57.7817 49.9452 56.8685 49.9452C55.9553 49.9452 55.0584 49.7037 54.2686 49.2451Z" fill="black"/>
<path d="M62.3936 41.1212H64.31V42.7811C64.539 42.2431 64.9214 41.7843 65.4093 41.462C65.8429 41.1623 66.3492 40.9851 66.8751 40.949V42.8141C66.4746 42.7877 66.0747 42.874 65.7208 43.0633C65.3146 43.2641 64.9655 43.5641 64.7058 43.9354C64.4316 44.3159 64.2877 44.7747 64.2954 45.2436V49.791H62.3789L62.3936 41.1212Z" fill="black"/>
<path d="M70.5683 49.4687C70.0646 49.1691 69.6556 48.7334 69.3884 48.2118V49.8021H67.4902V37.8197H69.3884V42.7812C69.6649 42.2277 70.1032 41.7715 70.6452 41.4731C71.1771 41.1636 71.7815 41.0005 72.3968 41.0004C73.15 40.9877 73.8903 41.1967 74.5258 41.6013C75.153 41.9989 75.6598 42.5602 75.9915 43.2246C76.3383 43.943 76.5163 44.7311 76.5119 45.5288C76.5074 46.3265 76.3207 47.1126 75.9659 47.827C75.6213 48.5001 75.0943 49.0626 74.4452 49.4503C73.7734 49.8441 72.9973 50.0232 72.2209 49.9633C71.6361 49.9466 71.0661 49.776 70.5683 49.4687ZM73.8662 47.391C74.1165 47.1412 74.3124 46.8423 74.4417 46.5131C74.571 46.1839 74.6308 45.8316 74.6174 45.4782C74.6222 44.9919 74.4956 44.5134 74.251 44.0931C74.025 43.7015 73.6969 43.3785 73.3019 43.1587C72.8937 42.9338 72.4341 42.8189 71.9681 42.8252C71.6289 42.8166 71.2916 42.8771 70.9766 43.0031C70.6616 43.1291 70.3756 43.3179 70.1359 43.5581C69.8895 43.8159 69.6976 44.1208 69.5716 44.4545C69.4457 44.7882 69.3884 45.1438 69.403 45.5002C69.3851 45.8441 69.4388 46.188 69.5606 46.5102C69.6825 46.8323 69.8699 47.1256 70.1111 47.3716C70.3522 47.6175 70.6417 47.8107 70.9614 47.9389C71.281 48.0672 71.6238 48.1276 71.9681 48.1165C72.3155 48.1278 72.6617 48.0683 72.9855 47.9417C73.3092 47.8151 73.6039 47.624 73.8515 47.38L73.8662 47.391Z" fill="black"/>
<path d="M79.7518 49.9999C79.0761 50.028 78.4124 49.815 77.8793 49.399C77.6382 49.2009 77.4465 48.9495 77.3193 48.6646C77.1921 48.3797 77.1329 48.0691 77.1464 47.7573C77.1533 47.423 77.2333 47.0943 77.3808 46.7943C77.5283 46.4942 77.7397 46.2301 78.0002 46.0204C78.6757 45.4669 79.4936 45.1151 80.3601 45.0054L80.9757 44.9028C81.5803 44.8002 82.0237 44.7123 82.3095 44.6463C82.5954 44.577 82.8679 44.4606 83.1156 44.3019C83.0936 44.0944 83.0243 43.8947 82.9132 43.7181C82.802 43.5415 82.6519 43.3928 82.4744 43.2832C82.0734 42.9946 81.5906 42.8418 81.0966 42.8471C80.6402 42.8417 80.1921 42.969 79.8067 43.2135C79.4177 43.4571 79.1062 43.8067 78.909 44.2212L77.2124 43.3345C77.5628 42.641 78.0882 42.0511 78.7367 41.6232C79.4391 41.1519 80.2692 40.9076 81.1149 40.9233C81.7459 40.9284 82.3693 41.0618 82.9471 41.3154C83.5663 41.5808 84.0992 42.0135 84.4861 42.565C84.9161 43.199 85.1318 43.9541 85.1017 44.7196V49.7801H83.2036V48.2264C82.8892 48.6863 82.4777 49.0716 81.998 49.355C81.4996 49.66 80.9429 49.8572 80.3637 49.934C80.1619 49.9724 79.9572 49.9945 79.7518 49.9999ZM82.4817 47.4349C82.8133 47.1706 83.0667 46.8209 83.2146 46.4235V45.8445C82.9477 46.012 82.6558 46.1357 82.3498 46.211C81.9317 46.3257 81.5071 46.415 81.0783 46.4785C80.5762 46.5554 80.2098 46.6214 79.979 46.6727C79.7545 46.7233 79.5441 46.8234 79.3634 46.9658C79.2734 47.0348 79.2015 47.1244 79.1536 47.2271C79.1058 47.3298 79.0834 47.4426 79.0885 47.5558C79.0793 47.6753 79.0995 47.7953 79.1474 47.9052C79.1953 48.015 79.2695 48.1115 79.3634 48.1861C79.5773 48.3356 79.8357 48.408 80.0962 48.3913C80.963 48.2834 81.7893 47.9609 82.5 47.4532L82.4817 47.4349Z" fill="black"/>
<path d="M85.7461 41.1212H87.6625V42.8141C87.8972 42.2636 88.2772 41.7874 88.7618 41.4363C89.1998 41.1244 89.7229 40.9543 90.2606 40.949C90.6861 40.9241 91.1109 41.0076 91.4954 41.1915C91.8799 41.3754 92.2115 41.6538 92.4592 42.0007C92.9887 42.8471 93.2446 43.8361 93.192 44.8332V49.7911H91.2756V45.141C91.3153 44.5258 91.1433 43.9154 90.7882 43.4114C90.6256 43.2145 90.4195 43.0581 90.1861 42.9545C89.9528 42.8508 89.6985 42.8028 89.4434 42.8141C89.1904 42.8067 88.9394 42.8604 88.7117 42.9708C88.4839 43.0812 88.2862 43.2449 88.1352 43.4481C87.794 43.9255 87.6225 44.5034 87.6479 45.0897V49.7911H85.7461V41.1212Z" fill="black"/>
<path d="M95.9833 49.3806C95.313 49.0122 94.7614 48.4606 94.3929 47.7903C94.0106 47.075 93.8105 46.2764 93.8105 45.4653C93.8105 44.6542 94.0106 43.8556 94.3929 43.1403C94.7614 42.47 95.313 41.9184 95.9833 41.5499C96.6655 41.1795 97.4294 40.9855 98.2057 40.9855C98.982 40.9855 99.7459 41.1795 100.428 41.5499C101.095 41.9182 101.646 42.4651 102.018 43.1293C102.401 43.8465 102.601 44.6469 102.601 45.4598C102.601 46.2727 102.401 47.0731 102.018 47.7903C101.648 48.4592 101.097 49.0104 100.428 49.3806C99.7459 49.7511 98.982 49.9451 98.2057 49.9451C97.4294 49.9451 96.6655 49.7511 95.9833 49.3806ZM99.4534 47.783C99.8347 47.5555 100.148 47.2304 100.362 46.8412C100.594 46.4208 100.711 45.9471 100.703 45.4671C100.713 44.9809 100.598 44.5001 100.369 44.071C100.159 43.6795 99.8444 43.3537 99.4607 43.1293C99.0779 42.9108 98.6447 42.7959 98.2039 42.7959C97.763 42.7959 97.3298 42.9108 96.947 43.1293C96.5651 43.3548 96.2521 43.6805 96.0419 44.071C95.813 44.5001 95.6982 44.9809 95.7084 45.4671C95.6995 45.9462 95.8144 46.4195 96.0419 46.8412C96.251 47.2326 96.5643 47.5585 96.947 47.783C97.3284 48.0051 97.7625 48.1203 98.2039 48.1164C98.643 48.1217 99.0752 48.0064 99.4534 47.783Z" fill="black"/>
<path d="M17.5669 39.7325C17.0129 40.2128 16.2949 40.4609 15.5625 40.425C15.5844 40.0621 15.6777 39.7071 15.8369 39.3803C15.9962 39.0534 16.2183 38.7612 16.4905 38.5203C16.7628 38.2793 17.0799 38.0944 17.4236 37.9761C17.7674 37.8577 18.1311 37.8083 18.494 37.8307H18.5123C18.4531 38.5625 18.1146 39.2435 17.5669 39.7325Z" fill="black"/>
</g>
<defs>
<clipPath id="clip0_511_538">
<rect width="102.602" height="50" fill="white"/>
</clipPath>
</defs>
</svg>
