<svg xmlns="http://www.w3.org/2000/svg" viewBox="0 0 197.86 161.51"><g id="Layer_2" data-name="Layer 2"><g id="Layer_1-2" data-name="Layer 1"><path d="M77.75,159.4c-.07.31-.39,1.58-.51,1.93h-5.9V161c1.11-.09,1.19-.19,1.19-1.18v-4.71c0-1.05-.13-1.12-1-1.2v-.35h3.71c1.15,0,1.61,0,1.76,0,0,.29.06,1.2.11,1.86l-.38.06a3.44,3.44,0,0,0-.39-1c-.19-.37-.45-.45-1.15-.45H74.1c-.39,0-.42,0-.42.39v2.63H75c.86,0,.93-.18,1.08-1h.39v2.51h-.39c-.17-.87-.26-1-1.09-1h-1.3v2.33c0,.83.22.94.85,1H75.6c.72,0,.85-.1,1.11-.42a5.54,5.54,0,0,0,.67-1.12Z"/><path d="M84.26,155.39c-.21-.79-.54-1.59-1.67-1.59a1.18,1.18,0,0,0-1.24,1.28c0,.8.52,1.22,1.52,1.74,1.41.72,2.07,1.28,2.07,2.43a2.42,2.42,0,0,1-2.68,2.26,5.24,5.24,0,0,1-1.87-.39,18.06,18.06,0,0,1-.33-1.85l.39-.1a2.26,2.26,0,0,0,2,1.89,1.28,1.28,0,0,0,1.35-1.35c0-.89-.48-1.26-1.53-1.83-1.26-.69-2-1.27-2-2.4a2.24,2.24,0,0,1,2.52-2.11,8.41,8.41,0,0,1,1.61.22c0,.44.1.94.2,1.72Z"/><path d="M93.75,155.45a4.11,4.11,0,0,0-.41-1c-.19-.31-.31-.4-1-.4H91.24v5.8c0,.95.1,1.07,1.23,1.15v.35H88.89V161c1.1-.08,1.2-.19,1.2-1.15V154h-1c-.66,0-.85.08-1.06.42a4.94,4.94,0,0,0-.41,1h-.38c.07-.76.15-1.55.18-2.2h.29c.18.28.32.28.66.28h4.75a.64.64,0,0,0,.63-.28H94c0,.55,0,1.45.11,2.16Z"/><path d="M99.88,161.33V161c.78-.1.85-.22.69-.69s-.38-1-.62-1.74H97.4c-.18.51-.36,1-.52,1.44-.26.78-.07.87.91,1v.35H95V161c.76-.1,1-.19,1.37-1.25l2.48-6.28.42-.08c.76,2.06,1.59,4.3,2.34,6.36.4,1.06.51,1.15,1.35,1.25v.35Zm-1.17-6.27-1.12,3h2.18Z"/><path d="M110.26,155.45a4.15,4.15,0,0,0-.4-1c-.2-.31-.32-.4-1-.4h-1.13v5.8c0,.95.11,1.07,1.23,1.15v.35H105.4V161c1.1-.08,1.2-.19,1.2-1.15V154h-1c-.66,0-.85.08-1.06.42a4.94,4.94,0,0,0-.41,1h-.38c.07-.76.15-1.55.18-2.2h.29c.18.28.32.28.66.28h4.76a.64.64,0,0,0,.62-.28h.3c0,.55,0,1.45.11,2.16Z"/><path d="M119.33,159.4c-.07.31-.39,1.58-.51,1.93h-5.9V161c1.11-.09,1.19-.19,1.19-1.18v-4.71c0-1.05-.13-1.12-1-1.2v-.35h3.71c1.15,0,1.61,0,1.76,0,0,.29.06,1.2.11,1.86l-.38.06a3.44,3.44,0,0,0-.39-1c-.19-.37-.45-.45-1.15-.45h-1.07c-.39,0-.42,0-.42.39v2.63h1.31c.86,0,.93-.18,1.08-1H118v2.51h-.39c-.17-.87-.26-1-1.09-1h-1.3v2.33c0,.83.22.94.85,1h1.07c.72,0,.85-.1,1.11-.42a5.54,5.54,0,0,0,.67-1.12Z"/><path d="M125.84,155.39c-.21-.79-.54-1.59-1.67-1.59a1.18,1.18,0,0,0-1.24,1.28c0,.8.52,1.22,1.52,1.74,1.41.72,2.07,1.28,2.07,2.43a2.42,2.42,0,0,1-2.68,2.26,5.24,5.24,0,0,1-1.87-.39,18.06,18.06,0,0,1-.33-1.85l.39-.1a2.26,2.26,0,0,0,2,1.89,1.28,1.28,0,0,0,1.35-1.35c0-.89-.48-1.26-1.53-1.83-1.26-.69-2-1.27-2-2.4a2.24,2.24,0,0,1,2.52-2.11,8.41,8.41,0,0,1,1.61.22c0,.44.1.94.2,1.72Z"/><path d="M24.3,123c-2.41.32-3,.64-4.32,3.88-1,2.38-5.94,14.44-7.71,18.9H11.09C9,140,5.87,131.52,3.82,126.2c-1-2.67-1.62-3-3.82-3.24v-1H9.14v1c-2.66.28-2.8.71-2.3,2.05.9,2.62,3.53,9.79,5.79,15.76,1.91-4.64,4.29-10.51,6-15,.79-2.09.36-2.41-2.59-2.77v-1H24.3Z"/><path d="M33.2,125.4a9.64,9.64,0,0,1,9.72,9.9c0,6.45-4.38,10.47-9.9,10.47a9.76,9.76,0,0,1-10-10C23.06,130.38,26.87,125.4,33.2,125.4Zm-.6,1.11c-3.36,0-6.42,2.82-6.42,8.43s3.06,9.69,7.32,9.69c3.63,0,6.36-2.7,6.36-8.49C39.86,129.84,36.53,126.51,32.6,126.51Z"/><path d="M56.27,130.38c-.51-2-1.35-3.93-4.17-3.93A3,3,0,0,0,49,129.72c0,2.07,1.32,3.12,3.81,4.41,3.6,1.86,5.16,3.24,5.16,6.09,0,3.15-2.73,5.55-6.6,5.55a12.52,12.52,0,0,1-4.59-1,40.94,40.94,0,0,1-.81-4.5l.93-.24c.6,2,1.92,4.62,5,4.62a3.3,3.3,0,0,0,3.48-3.45c0-2.31-1.23-3.24-3.87-4.68-3.15-1.71-4.92-3.15-4.92-5.94s2.22-5.19,6.18-5.19a19.21,19.21,0,0,1,4,.57c.12,1.08.24,2.28.48,4.23Z"/><path d="M71.27,130.38c-.51-2-1.35-3.93-4.17-3.93A3,3,0,0,0,64,129.72c0,2.07,1.32,3.12,3.81,4.41,3.6,1.86,5.16,3.24,5.16,6.09,0,3.15-2.73,5.55-6.6,5.55a12.52,12.52,0,0,1-4.59-1,40.94,40.94,0,0,1-.81-4.5l.93-.24c.6,2,1.92,4.62,5,4.62a3.3,3.3,0,0,0,3.48-3.45c0-2.31-1.23-3.24-3.87-4.68-3.15-1.71-4.92-3.15-4.92-5.94s2.22-5.19,6.18-5.19a19.21,19.21,0,0,1,4,.57c.12,1.08.24,2.28.48,4.23Z"/><path d="M108.17,122.93c-2.52.36-2.87.65-3.85,3.6-1.19,3.6-4.06,12.74-6,19.18H97.05c-1.87-5.61-4.28-12.56-6.15-17.89-2.09,6.19-4.21,12.35-6.09,17.89H83.63c-1.8-6.19-3.86-12.92-5.8-19.22-.94-2.91-1.33-3.31-3.67-3.56v-1h8.89v1c-2.66.29-2.74.68-2.23,2.48,1.4,4.86,2.84,9.65,4.32,14.72,2-5.72,4.14-12,6-17.89h1.15c2,6.12,4,11.81,6.12,17.93,1.52-4.79,3.57-11.19,4.36-14.33.54-2.08.25-2.55-2.81-2.91v-1h8.24Z"/><path d="M116,145.32v-.84c2-.24,2.19-.54,1.77-1.68s-1-2.67-1.62-4.56h-6.48c-.48,1.35-.93,2.52-1.35,3.75-.66,1.95-.24,2.19,2.22,2.49v.84H103.6v-.84c1.89-.24,2.37-.45,3.42-3.15l6.21-15.75,1-.18c1.89,5.13,4,10.8,5.85,16,1,2.61,1.23,2.85,3.36,3.09v.84Zm-3-16c-1,2.58-2,5.31-2.88,7.68h5.61Z"/><path d="M139.66,140.34c-.18.93-1.08,4-1.38,5h-14v-.84c2.73-.27,3-.42,3-3V129.6c0-2.55-.3-2.7-2.7-2.94v-.84h8v.84c-2.4.24-2.73.36-2.73,2.94v12.21c0,1.83.24,2.25,2,2.28l2.37,0c1.53,0,2-.18,2.67-.93a10.16,10.16,0,0,0,1.83-3.09Z"/><path d="M141.64,125.82h8v.84c-2.34.21-2.76.42-2.76,3.09v5.16a4.23,4.23,0,0,0,2.16-1.38c1.68-1.59,3.69-3.63,5.07-5.19.9-1,.81-1.41-.48-1.59l-.84-.09v-.84h7.29v.84c-2.25.27-3,.42-5,2.49-.9.87-3.24,3.15-5.16,5,2.28,2.7,5.61,6.54,7.17,8.19s1.92,1.89,3.78,2.1v.84H156c-2.31-2.61-4.74-5.52-7.47-8.7a1.81,1.81,0,0,0-1.68-.87v5.7c0,2.61.27,2.82,2.76,3v.84h-8v-.84c2.46-.21,2.7-.42,2.7-3v-11.7c0-2.7-.21-2.91-2.7-3.09Z"/><path d="M177.85,140.55c-.18.78-1,3.87-1.29,4.77H162v-.84c2.79-.21,3-.48,3-2.94V129.69c0-2.67-.33-2.82-2.58-3v-.84h9.18c2.82,0,4,0,4.35-.06,0,.75.15,3,.27,4.59l-.9.15a10,10,0,0,0-.9-2.28c-.48-1-1.17-1.2-3-1.2h-2.85c-.93,0-1,.09-1,1v6.63h3.33c2.25,0,2.4-.45,2.76-2.49h.93v6.18h-.93c-.39-2.16-.63-2.46-2.79-2.46h-3.3v6c0,2.1.66,2.28,2.16,2.31h2.79c1.83,0,2.13-.27,2.79-1.05a12.87,12.87,0,0,0,1.62-2.76Z"/><path d="M197.74,145.56c-.39,0-.72,0-1.11-.06a5.32,5.32,0,0,1-4.68-2.58c-1.11-1.53-2.19-3.42-3.15-4.95-.6-1-1-1.14-2.52-1.14h-1.05v4.71c0,2.55.33,2.7,2.73,2.94v.84h-8v-.84c2.49-.27,2.7-.39,2.7-2.94v-12c0-2.55-.33-2.64-2.7-2.91v-.84h7.65a8.47,8.47,0,0,1,4.8,1,4.48,4.48,0,0,1,2,4c0,2.58-1.65,4.2-3.87,5.16.54.93,1.83,2.94,2.73,4.29a27.55,27.55,0,0,0,2.37,3.09,4.32,4.32,0,0,0,2.19,1.38Zm-11.07-9.75a4.83,4.83,0,0,0,3.3-.87,4.22,4.22,0,0,0,1.65-3.69c0-3.21-2.13-4.38-4.44-4.38a2.75,2.75,0,0,0-1.59.3c-.27.21-.36.51-.36,1.29v7.35Z"/><path d="M139.74,48.36v2.42c-6.05.87-6.91,1.56-9.24,8.64-2.85,8.64-9.76,30.58-14.52,46h-2.93C108.56,92,102.77,75.31,98.28,62.53c-5,14.86-10.11,29.63-14.6,42.93H80.83c-4.32-14.86-9.24-31-13.91-46.13-2.24-7-3.19-7.94-8.81-8.55V48.36H79.45v2.42c-6.4.69-6.57,1.64-5.36,6,3.37,11.66,6.83,23.15,10.37,35.33C88.34,80.86,92.5,68.78,96.3,57l-.08-.24-16.51-48A9,9,0,0,0,73.1,2.92l-2.34-.5h0V0H92.66V2.39l-.28,0-1.87.29A4.06,4.06,0,0,0,87.29,8l12.79,37.17L112.42,8.27A4.06,4.06,0,0,0,109.19,3l-3.6-.56-.26,0V0h19.88V2.39l-.21,0-2.16.47a9,9,0,0,0-6.63,5.93L102.14,50.9c4.65,14,9.29,27.16,14.1,41.26,3.63-11.49,8.56-26.87,10.46-34.38,1.29-5,.6-6.13-6.74-7V48.36Z"/></g></g></svg>