<?xml version="1.0" encoding="UTF-8"?>
<svg id="Layer_2" data-name="Layer 2" xmlns="http://www.w3.org/2000/svg" viewBox="0 0 600 234.34">
  <defs>
    <style>
      .cls-1 {
        fill: none;
      }
    </style>
  </defs>
  <g id="Layer_1-2" data-name="Layer 1">
    <g>
      <g>
        <path d="M292.35,169.16l-22.86-103.24h15.78l19.47,93.21,21.53-93.21h24.04l21.09,93.06,19.32-93.06h15.78l-23.16,103.24h-24.33l-20.65-95.13-21.83,95.13h-24.19Z"/>
        <path d="M415.05,169.16v-103.24h45.72c9.54,0,17.13,2.48,22.79,7.45,5.65,4.97,8.48,11.38,8.48,19.25,0,5.41-1.33,10.2-3.98,14.38-2.66,4.18-6.25,7.25-10.77,9.22,6,2.07,10.59,5.26,13.79,9.59,3.19,4.33,4.79,9.49,4.79,15.49,0,8.46-2.93,15.22-8.78,20.28-5.85,5.06-13.84,7.6-23.96,7.6h-48.08ZM429.8,110.75h30.09c5.21,0,9.44-1.45,12.68-4.35,3.24-2.9,4.87-6.76,4.87-11.58,0-4.52-1.55-8.19-4.65-10.99-3.1-2.8-7.25-4.2-12.46-4.2h-30.53v31.12ZM429.8,155.29h32.45c5.51,0,9.9-1.45,13.2-4.35,3.29-2.9,4.94-6.86,4.94-11.87s-1.72-9.14-5.16-11.8c-3.44-2.65-7.97-3.98-13.57-3.98h-31.86v32Z"/>
        <path d="M552.95,169.89c-14.55,0-26.89-5.14-37.02-15.41-10.13-10.27-15.19-22.69-15.19-37.24s5.06-27.11,15.19-37.39c10.13-10.27,22.47-15.41,37.02-15.41,10.52,0,19.96,2.9,28.32,8.7,8.36,5.8,14.6,13.52,18.73,23.16l-14.6,4.13c-2.95-6.59-7.25-11.8-12.9-15.63-5.66-3.83-12.17-5.75-19.54-5.75-10.52-.1-19.32,3.54-26.4,10.91-7.08,7.37-10.62,16.47-10.62,27.28s3.52,19.62,10.55,26.99c7.03,7.37,15.85,11.06,26.47,11.06,7.38,0,13.84-1.87,19.4-5.6,5.55-3.74,9.85-8.85,12.9-15.34l14.75,3.98c-4.13,9.44-10.35,17.06-18.66,22.86-8.31,5.8-17.77,8.7-28.39,8.7Z"/>
      </g>
      <g>
        <path d="M117.12,8.64l.05.35v-.35h-.05Z"/>
        <path d="M200.58,114.47c0,16.74-4.93,32.33-13.43,45.4l-10.77-27.1c3.93-8.41,6.14-17.79,6.14-27.69,0-27.6-17.11-51.21-41.3-60.79h0c-3.17-1.26-6.46-2.27-9.86-3.03-.47-.1-.95-.2-1.42-.3-2.76-.54-5.58-.92-8.45-1.1-1.42-.09-2.86-.14-4.31-.14s-2.76.04-4.13.13c-2.93.18-5.81.56-8.63,1.12-.48.09-.95.19-1.42.3-3.39.75-6.69,1.77-9.86,3.03-24.2,9.58-41.31,33.19-41.31,60.79,0,9.9,2.2,19.28,6.14,27.69l-10.77,27.1c-8.49-13.07-13.42-28.66-13.42-45.39,0-39.27,27.14-72.21,63.7-81.07h0c2.69-.66,5.44-1.18,8.23-1.56.37-.05.74-.1,1.11-.14,2.46-.31,4.95-.51,7.47-.59.97-.03,1.94-.05,2.91-.05,1.04,0,2.06.02,3.09.06,2.46.09,4.89.28,7.3.59.37.04.74.09,1.1.14,2.79.38,5.53.9,8.23,1.56h0c36.55,8.86,63.7,41.79,63.7,81.07Z"/>
        <path d="M117.12,8.64l.05.35v-.35h-.05Z"/>
        <path d="M124.24.21c-1.87-.11-3.75-.18-5.64-.2-.48,0-.95,0-1.43,0-.42,0-.84,0-1.26,0-1.95.02-3.89.09-5.82.2C48.67,3.87,0,54.83,0,117.17c0,31.22,12.21,59.58,32.11,80.59,2,2.11,4.09,4.15,6.23,6.11,11.47,10.44,25.03,18.63,39.98,23.89l3.87-27.71,1.3-9.24,3.84-27.57,7.99-57.22c-2.08-3.44-3.45-5.74-5.53-9.19-2.1.94-3.76,1.69-5.41,2.43s-3.31,1.49-5.41,2.43l-15.92,40.04-10.26,25.79-4.39,11.05c-2.12-2.05-4.16-4.2-6.1-6.45-14.96-17.33-24.01-39.9-24.01-64.59C18.29,56.32,57.21,14.2,107.08,9.15c.59-.06,1.19-.11,1.78-.16,2.34-.2,4.69-.31,7.08-.34.4,0,.78,0,1.18,0h.27c.34,0,.67,0,1.01,0,2.37.03,4.73.15,7.07.34.59.05,1.19.09,1.78.16,49.87,5.05,88.8,47.17,88.8,98.38,0,24.69-9.05,47.27-24.01,64.59-1.93,2.24-3.97,4.4-6.09,6.45l-4.4-11.05-10.26-25.8-15.91-40.03c-4.2-1.89-6.62-2.98-10.83-4.86h0c-2.07,3.44-3.45,5.74-5.53,9.19l7.99,57.22,3.85,27.57,1.29,9.24,3.87,27.71c14.95-5.26,28.5-13.45,39.99-23.89,2.15-1.96,4.23-4,6.23-6.11,19.91-21,32.12-49.37,32.12-80.59C234.34,54.83,185.66,3.87,124.24.21Z"/>
        <path d="M148.05,230.23c-9.84,2.68-20.2,4.11-30.89,4.11s-20.93-1.41-30.72-4.06l3.85-27.57,1.23-8.83,3.8-27.18,12.8-91.68,9.1-12.29h0l.02-.02h0s9.12,12.33,9.12,12.33l12.79,91.6,3.8,27.18,1.23,8.85,3.84,27.57Z"/>
        <line class="cls-1" x1="117.16" y1="8.99" x2="117.12" y2="8.64"/>
      </g>
    </g>
  </g>
</svg>