<svg width="1810" height="332" viewBox="0 0 1810 332" fill="none" xmlns="http://www.w3.org/2000/svg">
<g clip-path="url(#clip0_509_444)">
<path d="M36.3409 214.477H35.5896V244.808H0V0H36.6226V96.7212H37.5616C42.8396 86.4122 50.9374 77.8147 60.9122 71.9295C70.8869 66.0444 82.3283 63.1139 93.904 63.4791C138.884 63.4791 168.182 99.0687 168.182 155.599C168.182 212.129 138.978 247.813 93.904 247.813C82.1389 248.268 70.4859 245.377 60.2971 239.477C50.1084 233.576 41.8017 224.908 36.3409 214.477ZM36.3409 155.599C36.3409 192.691 55.8729 216.824 83.2929 216.824C110.713 216.824 130.245 193.442 130.245 155.599C130.245 117.756 112.685 93.904 83.7624 93.904C54.8399 93.904 36.4348 118.789 36.4348 155.599H36.3409Z" fill="black"/>
<path d="M342.656 192.409C338.054 225.37 306.69 248.188 265.842 248.188C213.444 248.188 181.329 212.787 181.329 156.444C181.329 100.102 213.538 63.1035 263.964 63.1035C314.391 63.1035 344.346 98.0358 344.346 152.218V164.708H218.702V166.961C218.702 197.95 237.483 218.515 266.687 218.515C275.463 219.24 284.236 217.084 291.676 212.373C299.115 207.662 304.815 200.653 307.911 192.409H342.656ZM218.89 139.072H308.099C307.254 111.84 289.976 92.1199 264.34 92.1199C238.704 92.1199 220.674 112.121 218.89 139.072Z" fill="black"/>
<path d="M413.647 24.1334V66.2963H447.546V95.3126H413.647V193.724C413.647 209.218 420.408 216.167 435.339 216.167C439.36 216.172 443.377 215.889 447.359 215.322V244.15C440.636 245.363 433.812 245.929 426.981 245.841C390.922 245.841 376.837 232.037 376.837 197.668V95.3126H350.825V66.2963H376.837V24.1334H413.647Z" fill="black"/>
<path d="M518.163 24.1334V66.2963H552.062V95.3126H518.163V193.724C518.163 209.218 524.924 216.167 539.854 216.167C543.876 216.172 547.893 215.889 551.874 215.322V244.15C545.151 245.363 538.328 245.929 531.497 245.841C495.438 245.841 481.352 232.037 481.352 197.668V95.3126H455.341V66.2963H481.352V24.1334H518.163Z" fill="black"/>
<path d="M723.906 192.409C718.835 224.994 687.941 248.188 647.093 248.188C594.694 248.188 562.579 212.787 562.579 156.444C562.579 100.102 594.788 63.1035 645.215 63.1035C695.641 63.1035 725.596 98.0358 725.596 152.218V164.708H599.953V166.961C599.953 197.95 618.734 218.515 647.938 218.515C656.711 219.225 665.477 217.062 672.913 212.353C680.35 207.644 686.053 200.644 689.162 192.409H723.906ZM600.047 139.072H689.35C688.504 111.84 671.132 92.1199 645.59 92.1199C620.048 92.1199 601.925 112.121 600.047 139.072Z" fill="black"/>
<path d="M747.382 66.2962H782.314V96.7211H783.159C785.411 87.0432 790.944 78.4436 798.819 72.3836C806.693 66.3236 816.423 63.1772 826.355 63.4791C830.58 63.5454 834.791 63.9853 838.938 64.7938V98.8809C833.56 97.3951 827.988 96.7303 822.411 96.9089C798.841 96.9089 784.286 112.685 784.286 137.945V244.808H747.664L747.382 66.2962Z" fill="black"/>
<path d="M1018.39 246.592C1016.78 246.669 1015.17 246.409 1013.66 245.826C1012.16 245.244 1010.79 244.353 1009.66 243.211C1008.66 242.249 1007.86 241.098 1007.31 239.824C1006.76 238.55 1006.48 237.18 1006.46 235.793C1007.14 226.426 1009.43 217.246 1013.22 208.655C1032.76 160.482 1043.46 134.564 1045.15 130.902C1048.16 124.141 1051.16 116.629 1053.98 108.271C1056.1 102.872 1057.52 97.2232 1058.2 91.4625C1058.32 89.7506 1058 88.0372 1057.27 86.4856C1056.61 85.6405 1055.2 85.2649 1053.04 85.2649C1044.31 85.2649 1032.38 93.3406 1017.07 109.586C1003.52 123.228 992.434 139.113 984.302 156.538L971.719 185.46C966.46 197.386 962.328 207.997 957.915 217.2C953.501 226.403 950.215 235.981 946.646 244.808H916.973C927.302 222.146 938.007 196.792 949.088 168.746C960.169 140.7 966.992 121.919 969.559 112.403C972.223 104.003 973.77 95.2892 974.16 86.4856C974.339 84.6762 973.91 82.8587 972.94 81.3209C972.378 80.7312 971.687 80.2801 970.921 80.003C970.155 79.726 969.335 79.6307 968.526 79.7245C959.887 79.7245 949.745 86.7673 936.599 100.853C924.684 113.737 914.661 128.25 906.831 143.955C904.577 148.838 901.009 156.914 896.22 168.37C891.431 179.826 885.515 193.912 878.566 211.096C871.617 228.281 866.828 239.267 864.48 244.996H834.431C854.088 200.109 868.205 165.146 876.782 140.105C878.097 136.161 879.787 131.372 881.759 125.55C883.731 119.728 885.045 116.159 885.891 113.436C886.736 110.713 887.487 108.459 888.426 105.36C889.365 102.262 889.928 99.82 890.304 98.2236C890.432 96.7866 890.432 95.3411 890.304 93.904C890.527 92.6619 890.527 91.39 890.304 90.1479C889.994 89.8225 889.611 89.5759 889.186 89.4289C888.761 89.2819 888.307 89.2386 887.863 89.3027C885.045 89.3027 880.538 92.4016 874.434 98.6931C868.331 104.985 859.597 114.751 848.423 127.991L845.136 125.362C855.612 109.682 867.664 95.114 881.101 81.8843C893.309 70.0524 902.699 64.1365 909.273 64.1365C910.49 64.1229 911.697 64.3669 912.813 64.8524C913.93 65.3379 914.932 66.0539 915.752 66.9536C917.616 69.1804 918.557 72.0366 918.381 74.9354C917.132 95.4307 912.301 115.549 904.108 134.377H905.235C916.272 115.88 929.55 98.8173 944.768 83.5746C954.29 72.4635 967.76 65.4925 982.33 64.1365C995.289 64.1365 1001.77 71.7427 1001.77 87.049C999.066 105.637 993.755 123.751 985.992 140.856H987.119C999.934 120.625 1015.34 102.157 1032.94 85.9222C1048.91 71.6488 1062.99 64.5121 1075.2 64.5121C1077.17 64.4001 1079.15 64.7688 1080.94 65.5867C1082.74 66.4045 1084.32 67.647 1085.53 69.2073C1088.09 72.8933 1089.41 77.3027 1089.29 81.7904C1088.9 92.5399 1086.48 103.118 1082.15 112.967L1036.14 224.431L1036.89 225.745C1046.47 220.018 1055.17 212.933 1062.71 204.711C1071.25 196.353 1079.16 187.377 1086.38 177.854L1089.38 180.577C1079.84 196.249 1068.11 210.478 1054.54 222.834C1038.02 238.735 1025.96 246.655 1018.39 246.592Z" fill="black"/>
<path d="M1106.94 246.592C1093.61 246.592 1086.94 238.516 1086.94 222.271C1087.47 204.486 1091.65 187 1099.24 170.905C1107.1 152.727 1117.3 135.649 1129.57 120.103C1140.84 105.558 1154.12 92.6893 1169.01 81.8843C1180.09 72.8134 1193.7 67.4001 1207.98 66.3902C1212.57 66.2911 1217.08 67.5665 1220.94 70.0524C1224.41 72.2231 1227.28 75.2248 1229.3 78.7855L1231.65 72.7756L1258.31 64.5121H1260.66L1218.12 174.943C1207.73 202.551 1203.19 218.202 1204.51 221.895C1210.77 220.33 1224.82 207.81 1246.67 184.334L1249.3 187.151C1239.92 200.913 1228.95 213.521 1216.62 224.712C1201.22 239.361 1189.54 246.686 1181.59 246.686C1175.11 246.686 1172.2 243.211 1172.2 236.263C1172.44 233.066 1173.07 229.912 1174.08 226.872C1175.4 222.271 1176.71 218.045 1178.21 213.913C1179.72 209.782 1181.69 204.523 1184.32 196.729C1186.95 188.935 1188.92 184.052 1190.14 180.577H1188.64C1181.71 190.447 1174.15 199.857 1166.01 208.749C1157 218.419 1147.03 227.136 1136.24 234.76C1127.88 241.557 1117.67 245.68 1106.94 246.592ZM1129.2 225.37C1136.24 225.37 1146.57 218.89 1160.18 206.025C1174.71 191.716 1186.79 175.126 1195.96 156.914C1210.99 127.991 1218.5 107.332 1218.5 94.937C1218.5 79.9123 1212.77 72.4 1201.22 72.4C1193.9 72.4 1185.26 77.9404 1175.21 89.021C1164.62 100.892 1155.42 113.936 1147.79 127.897C1139.75 142.602 1132.75 157.852 1126.85 173.535C1121.98 184.799 1119.03 196.795 1118.12 209.03C1117.82 213.442 1118.5 217.864 1120.09 221.989C1121.12 224.525 1124.31 225.37 1129.2 225.37Z" fill="black"/>
<path d="M1252.96 244.808C1268.24 207.246 1281.88 171.657 1293.9 138.039C1296.81 129.869 1299.44 121.981 1301.79 114.469C1304.14 106.957 1305.74 101.229 1306.67 97.1907C1307.4 94.7357 1307.9 92.2218 1308.18 89.6784C1308.24 88.9597 1308.24 88.2372 1308.18 87.5186C1308.1 87.114 1307.94 86.7299 1307.71 86.3917C1307.5 86.3039 1307.28 86.2587 1307.05 86.2587C1306.82 86.2587 1306.6 86.3039 1306.39 86.3917C1304.14 86.3917 1299.26 89.8662 1291.93 96.909C1283.21 105.619 1275.23 115.042 1268.08 125.08L1264.79 122.639C1274.06 106.815 1285.54 92.3955 1298.88 79.8184C1306.3 71.7201 1316.22 66.333 1327.05 64.5121C1333.53 64.5121 1336.44 68.55 1336.44 76.4379C1336.01 83.0122 1334.91 89.5252 1333.16 95.876C1331.35 103.956 1329.06 111.921 1326.3 119.728H1327.43C1336.49 104.072 1348.03 89.9909 1361.61 78.0343C1368.59 71.0565 1377.59 66.4564 1387.34 64.8877C1389.83 64.8237 1392.31 65.2557 1394.63 66.1585C1396.95 67.0613 1399.07 68.4169 1400.86 70.1463C1402.68 71.7119 1404.14 73.6585 1405.13 75.8488C1406.12 78.0392 1406.62 80.42 1406.59 82.8234C1406.62 87.7238 1404.73 92.4417 1401.33 95.9699C1399.68 97.8374 1397.64 99.3186 1395.35 100.308C1393.06 101.298 1390.58 101.773 1388.09 101.698C1386.51 101.747 1384.93 101.589 1383.39 101.229L1379.83 100.102C1378.64 99.6248 1377.58 98.8864 1376.73 97.9419L1374.47 95.5943C1373.76 94.6675 1373.16 93.6586 1372.69 92.5894L1371 89.6784C1371 89.1149 1370.25 87.9881 1369.59 86.2039L1368.46 83.199C1361.8 84.7014 1353.16 92.5894 1342.36 106.769C1332.76 119.087 1324.99 132.717 1319.26 147.242C1299.1 202.269 1287.05 234.791 1283.1 244.808H1252.96Z" fill="black"/>
<path d="M1390.34 331.951V327.913L1406.49 326.223C1409.23 326.089 1411.82 324.991 1413.82 323.124C1416.12 320.037 1417.87 316.573 1418.98 312.888L1450.54 223.679C1443.78 229.939 1436.16 235.19 1427.9 239.267C1421.59 242.98 1414.54 245.256 1407.25 245.935C1402.45 246.006 1397.7 245.046 1393.31 243.117C1388.91 241.189 1384.99 238.339 1381.8 234.76C1374.25 225.26 1370.62 213.232 1371.66 201.142C1371.74 184.212 1374.93 167.441 1381.05 151.655C1386.95 135.776 1395.15 120.844 1405.37 107.332C1414.55 95.2405 1425.65 84.7397 1438.23 76.2501C1448.32 68.8577 1460.39 64.6403 1472.88 64.1365C1486.97 64.1365 1495.14 68.6439 1497.58 77.7526L1500.21 71.2732L1526.41 64.1365H1528.85L1452.13 301.808C1449.87 307.674 1448.33 313.79 1447.53 320.025C1447.55 320.617 1447.72 321.195 1448 321.715C1448.32 322.316 1448.81 322.806 1449.41 323.124L1451.19 324.251C1452.03 324.644 1452.91 324.928 1453.82 325.096L1456.64 325.753L1459.83 326.317L1463.12 326.786H1466.59C1467.65 326.688 1468.72 326.688 1469.79 326.786V330.824L1390.34 331.951ZM1407.62 241.521C1415.51 241.521 1424.62 235.324 1434.76 222.74C1445.53 209.329 1454.7 194.706 1462.09 179.169C1470.06 162.752 1476.9 145.81 1482.56 128.461C1487.31 115.676 1490.16 102.26 1491.01 88.6454C1491.12 83.897 1489.6 79.2542 1486.69 75.4989C1485.69 73.8792 1484.32 72.5274 1482.68 71.5617C1481.04 70.596 1479.2 70.0456 1477.3 69.9585C1468.56 69.9585 1457.58 78.5977 1444.34 96.0638C1430.11 115.193 1418.38 136.05 1409.41 158.134C1400.51 177.256 1395.41 197.92 1394.38 218.984C1393.95 224.833 1394.95 230.697 1397.29 236.075C1398.3 237.885 1399.81 239.364 1401.65 240.33C1403.48 241.297 1405.56 241.711 1407.62 241.521Z" fill="black"/>
<path d="M1538.9 246.592C1536.77 246.794 1534.63 246.421 1532.7 245.512C1530.77 244.604 1529.11 243.193 1527.91 241.427C1525.62 237.707 1524.48 233.397 1524.63 229.032C1525.31 218.284 1527.85 207.737 1532.14 197.856L1573.55 89.3028C1573.55 87.6125 1572.89 86.6734 1571.58 86.6734C1570.54 86.7322 1569.52 86.9871 1568.57 87.4247C1567.25 88.0861 1565.99 88.8722 1564.82 89.7723L1560.78 92.965C1559.03 94.3264 1557.39 95.8343 1555.9 97.4724L1550.82 102.449C1549.32 103.952 1547.54 105.924 1545.19 108.459L1539.65 114.563L1533.55 121.324C1531.01 124.329 1529.04 126.489 1527.72 127.991L1524.63 125.362C1527.93 119.899 1531.63 114.688 1535.71 109.774C1540.87 103.294 1546.79 96.6273 1553.27 89.7723C1559.54 83.1117 1566.49 77.1313 1574.02 71.9305C1579.42 67.6773 1585.95 65.0985 1592.8 64.5121C1594.31 64.4039 1595.83 64.6635 1597.22 65.2685C1598.61 65.8736 1599.83 66.8061 1600.78 67.9865C1602.7 70.2373 1603.73 73.1067 1603.69 76.0623C1603.14 85.3603 1601.14 94.5157 1597.78 103.201C1596.21 107.645 1590.77 121.543 1581.44 144.894C1572.05 168.37 1566.69 182.456 1564.91 187.808C1561.38 197.265 1558.64 207.003 1556.74 216.918C1556.64 219.049 1556.93 221.181 1557.59 223.21C1557.96 223.936 1558.55 224.532 1559.27 224.918C1559.99 225.303 1560.81 225.461 1561.62 225.37C1565.61 224.96 1569.44 223.608 1572.8 221.426C1577.79 218.619 1582.37 215.144 1586.41 211.096C1603.63 194.403 1617.89 174.907 1628.58 153.439C1629.77 150.998 1632.3 144.894 1636.18 135.128L1650.18 99.7261C1655.62 85.9222 1659.57 74.7476 1663.42 66.3902H1691.59L1649.05 174.943C1638.47 203.24 1633.71 219.141 1634.77 222.646C1636.14 222.033 1637.46 221.311 1638.72 220.487L1642.94 217.763C1644.57 216.628 1646.14 215.406 1647.64 214.101L1652.24 210.157L1657.12 205.65L1661.63 201.236L1666.14 196.541C1668.02 194.475 1669.43 193.067 1670.08 192.222L1674.03 188.09C1675.2 187.01 1676.3 185.849 1677.31 184.615L1679.85 187.432C1670.52 201.178 1659.62 213.784 1647.36 224.994C1632.33 239.455 1620.66 246.686 1612.33 246.686C1606.07 246.686 1602.94 243.211 1602.94 236.263C1606.03 218.66 1610.81 201.396 1617.21 184.709L1616.46 183.301C1604.82 200.742 1590.49 216.239 1574.02 229.22C1558.68 240.801 1546.97 246.592 1538.9 246.592Z" fill="black"/>
<path d="M1711.68 246.592C1708.04 246.658 1704.42 245.966 1701.06 244.56C1697.7 243.154 1694.66 241.063 1692.15 238.422C1686.23 231.146 1683.37 221.852 1684.17 212.505C1684.57 195.942 1687.74 179.564 1693.56 164.05C1699.35 147.084 1707.17 130.878 1716.85 115.784C1725.65 101.829 1736.72 89.4491 1749.62 79.1611C1759.68 70.344 1772.42 65.182 1785.77 64.5121C1789.15 64.1644 1792.56 64.5189 1795.79 65.5531C1799.02 66.5874 1802.01 68.2791 1804.55 70.5219C1808.05 74.3426 1809.99 79.3334 1810 84.5136C1809.93 89.9555 1808.65 95.3134 1806.24 100.196C1802.99 106.748 1798.71 112.739 1793.57 117.943C1785.5 125.742 1776.36 132.351 1766.43 137.569C1752.43 145.281 1737.79 151.753 1722.67 156.914C1717.01 170.872 1713.83 185.713 1713.28 200.767C1712.72 207.325 1714.23 213.893 1717.6 219.548C1719.43 221.606 1721.71 223.205 1724.28 224.217C1726.84 225.228 1729.6 225.623 1732.34 225.37C1750 225.37 1766.9 212.035 1782.77 185.367L1786.81 187.808C1783.53 194.507 1779.5 200.808 1774.79 206.589C1769.31 213.342 1763.28 219.625 1756.76 225.37C1750.09 231.41 1742.6 236.469 1734.5 240.394C1727.45 244.141 1719.66 246.259 1711.68 246.592ZM1724.36 151.279C1741.75 145.146 1757.72 135.564 1771.31 123.108C1775.95 118.602 1779.64 113.217 1782.17 107.267C1784.7 101.318 1786.02 94.9233 1786.05 88.4576C1786.32 84.1895 1785.31 79.9393 1783.14 76.2501C1782.42 74.9861 1781.38 73.9271 1780.13 73.1718C1778.88 72.4165 1777.46 71.9894 1776.01 71.9305C1769.72 71.9305 1761.26 80.3819 1750.47 97.2846C1739.64 114.176 1730.87 132.304 1724.36 151.279Z" fill="black"/>
</g>
<defs>
<clipPath id="clip0_509_444">
<rect width="1810" height="331.951" fill="white"/>
</clipPath>
</defs>
</svg>
