<svg xmlns="http://www.w3.org/2000/svg" viewBox="0 0 600 110.03"><defs><style>.cls-1{fill:#fff;}</style></defs><g id="Layer_2" data-name="Layer 2"><g id="Layer_1-2" data-name="Layer 1"><path class="cls-1" d="M12,71.08h-.22V81.15H0V0H12.15V32.06h.28C16,25.19,22.72,21,31.1,21,46,21,55.73,32.84,55.73,51.57S46.06,82.16,31,82.16C22.38,82.16,15.69,78,12,71.08Zm.06-19.51c0,12.32,6.47,20.3,15.69,20.3,9.56,0,15.47-7.76,15.47-20.3s-5.91-20.3-15.47-20.3C18.56,31.27,12.09,39.37,12.09,51.57Z"/><path class="cls-1" d="M113.6,63.77c-1.68,10.8-11.92,18.5-25.47,18.5-17.38,0-27.9-11.75-27.9-30.42S70.92,20.92,87.62,20.92c16.42,0,26.66,11.59,26.66,29.52v4.17H72.49v.73c0,10.29,6.19,17.09,15.92,17.09,6.92,0,12-3.48,13.66-8.66Zm-41-17.65h29.58c-.28-9.06-6-15.41-14.51-15.41S73.17,37.17,72.55,46.12Z"/><path class="cls-1" d="M137.11,8V22h11.25v9.62H137.11V64.22c0,5.12,2.25,7.43,7.2,7.43a26.15,26.15,0,0,0,4-.29V81a33.07,33.07,0,0,1-6.74.57c-12,0-16.65-4.56-16.65-16v-34h-8.6V22h8.6V8Z"/><path class="cls-1" d="M171.76,8V22H183v9.62H171.76V64.22c0,5.12,2.25,7.43,7.2,7.43a26.35,26.35,0,0,0,4-.29V81a33.18,33.18,0,0,1-6.75.57c-12,0-16.65-4.56-16.65-16v-34H151V22h8.6V8Z"/><path class="cls-1" d="M240,63.77c-1.69,10.8-11.93,18.5-25.48,18.5-17.38,0-27.89-11.75-27.89-30.42S197.29,20.92,214,20.92c16.42,0,26.65,11.59,26.65,29.52v4.17H198.87v.73c0,10.29,6.18,17.09,15.91,17.09,6.92,0,12-3.48,13.67-8.66ZM198.92,46.12H228.5c-.28-9.06-6-15.41-14.5-15.41S199.54,37.17,198.92,46.12Z"/><path class="cls-1" d="M247.74,22h11.58V32.06h.29c2-6.92,7.25-11,14.22-11a22.09,22.09,0,0,1,4.17.45V32.79a17.23,17.23,0,0,0-5.46-.68c-7.82,0-12.65,5.23-12.65,13.61V81.15H247.74Z"/><path class="cls-1" d="M337.58,81.76a3.77,3.77,0,0,1-2.88-1.13,3.5,3.5,0,0,1-1.07-2.46q0-3.23,2.25-9,9.74-24,10.58-25.78a78.67,78.67,0,0,0,2.92-7.5,22.67,22.67,0,0,0,1.4-5.57,3,3,0,0,0-.31-1.64c-.2-.28-.67-.42-1.4-.42q-4.31,0-11.91,8.05t-10.88,15.6l-4.17,9.57q-2.58,5.93-4.56,10.52t-3.74,9.15H304Q309.14,69.9,314.6,56t6.81-18.76a33.84,33.84,0,0,0,1.52-8.57,2.92,2.92,0,0,0-.39-1.73,1.78,1.78,0,0,0-1.49-.52q-4.26,0-10.58,7a61.16,61.16,0,0,0-9.85,14.29q-1.15,2.43-3.53,8.09T291.23,69.9q-3.51,8.52-4.66,11.25h-10q9.91-22.25,14-34.72l1.64-4.8c.65-1.9,1.1-3.24,1.37-4s.54-1.67.85-2.71.5-1.81.61-2.34a7.78,7.78,0,0,0,.15-1.46,2.7,2.7,0,0,0-.18-1.21.88.88,0,0,0-.79-.31c-.94,0-2.43,1.05-4.47,3.13s-4.92,5.32-8.61,9.7l-1-.85a91.52,91.52,0,0,1,11.92-14.44q6.08-5.86,9.36-5.87a2.85,2.85,0,0,1,2.16.95,3.76,3.76,0,0,1,.88,2.64q0,7.37-4.74,19.7l.36.12a88.24,88.24,0,0,1,13.1-16.84q6.66-6.45,12.32-6.44,6.43,0,6.44,7.6,0,4.25-5.11,17.57l.37.12a92.7,92.7,0,0,1,15.29-18.21q7.93-7.08,14-7.08A4,4,0,0,1,360,22.94a6.8,6.8,0,0,1,1.15,4.16,27.68,27.68,0,0,1-2.37,10.34l-15.26,37,.24.43c2.28-1.18,5.12-3.5,8.55-7A86.66,86.66,0,0,0,360.14,59l1,.91q-3.35,6.09-11.55,14T337.58,81.76Z"/><path class="cls-1" d="M367,81.76q-6.61,0-6.62-8.09,0-7.71,4.07-17a76.47,76.47,0,0,1,10-16.84,65.5,65.5,0,0,1,13.1-12.68Q394.69,22,400.45,22a7.67,7.67,0,0,1,4.29,1.22,7.9,7.9,0,0,1,2.76,2.92l.79-2,8.94-2.73H418L403.92,58q-5.18,13.74-4.5,15.56,3.22-.8,14-12.34l.85.91q-3.15,5.06-10.82,12.34t-11.61,7.3q-3.22,0-3.22-3.47a13.93,13.93,0,0,1,.63-3.22c.43-1.5.89-2.93,1.37-4.29s1.17-3.25,2-5.68,1.51-4.21,1.91-5.35l-.48-.12a94.73,94.73,0,0,1-7.51,9.27,64.16,64.16,0,0,1-10,8.82Q371,81.76,367,81.76Zm7.36-6.93q3.53,0,10.27-6.42a60.68,60.68,0,0,0,11.86-16.26q7.47-14.41,7.48-20.55,0-7.49-5.72-7.48-3.65,0-8.63,5.5a69.58,69.58,0,0,0-9.09,12.89,115.76,115.76,0,0,0-7,15q-2.93,7.63-2.92,11.76a9.73,9.73,0,0,0,.67,4.29C371.65,74.41,372.69,74.83,374.31,74.83Z"/><path class="cls-1" d="M415.35,81.15Q423,62.37,428.91,45.77c1-2.72,1.84-5.32,2.61-7.82s1.32-4.4,1.64-5.74a15.28,15.28,0,0,0,.49-2.49,5.59,5.59,0,0,0,0-.7.76.76,0,0,0-.15-.37.52.52,0,0,0-.43-.15c-.77,0-2.37,1.17-4.8,3.49a74.86,74.86,0,0,0-7.9,9.22l-1.1-.79a63.06,63.06,0,0,1,11.31-14.2q5.71-5.07,9.36-5.08,3.22,0,3.23,3.95a32.41,32.41,0,0,1-1.07,6.45,75.27,75.27,0,0,1-2.28,7.9l.37.12q5.77-9.36,11.12-13.71t8.51-4.34a6.37,6.37,0,0,1,4.5,1.73,5.54,5.54,0,0,1,1.89,4.23,6.26,6.26,0,0,1-1.74,4.34,5.66,5.66,0,0,1-4.4,1.92,6.17,6.17,0,0,1-1.55-.18c-.47-.13-.86-.25-1.19-.37a2.82,2.82,0,0,1-1-.7c-.35-.34-.6-.61-.76-.79a5,5,0,0,1-.61-1l-.49-1c-.08-.17-.23-.54-.45-1.13s-.36-.92-.4-1q-3.29.72-8.63,7.81a52.52,52.52,0,0,0-7.66,13.41q-10,27.35-12,32.34Z"/><path class="cls-1" d="M460.89,110v-1.34l5.35-.55a3.76,3.76,0,0,0,2.43-1,10.72,10.72,0,0,0,1.7-3.4l10.46-29.55a31.68,31.68,0,0,1-7.48,5.17c-2.88,1.46-5.17,2.18-6.87,2.18A11.13,11.13,0,0,1,458.06,78q-3.37-3.55-3.37-11.16a45.9,45.9,0,0,1,3.19-16.41,57.07,57.07,0,0,1,8.05-14.69,46.13,46.13,0,0,1,10.89-10.3q6-4,11.49-4,7,0,8.21,4.49l.85-2.12,8.69-2.37h.79l-25.41,78.79a25.28,25.28,0,0,0-1.52,6,1.22,1.22,0,0,0,.15.58,1.17,1.17,0,0,0,.46.45l.6.37a3,3,0,0,0,.86.3l.94.21c.26.06.61.13,1.06.19l1.1.15c.28,0,.66.08,1.15.12a10.22,10.22,0,0,1,1,.12V110Zm5.71-30q4,0,9-6.14a71.75,71.75,0,0,0,9.06-14.44,135.22,135.22,0,0,0,6.81-16.82q2.79-8.5,2.8-13.19a7,7,0,0,0-1.43-4.35,4,4,0,0,0-3.07-1.85q-4.32,0-10.92,8.66a93.53,93.53,0,0,0-11.58,20.58q-5,11.93-5,20.19c0,2.63.32,4.52,1,5.65A3.52,3.52,0,0,0,466.6,80.06Z"/><path class="cls-1" d="M510.14,81.76A4,4,0,0,1,506.49,80a7.55,7.55,0,0,1-1.09-4.11q0-3.77,2.49-10.33l13.74-36c0-.56-.22-.85-.67-.85a2.32,2.32,0,0,0-1,.25,6.43,6.43,0,0,0-1.25.76c-.46.34-.92.69-1.37,1.06s-1,.86-1.61,1.49L514.09,34c-.49.49-1.1,1.15-1.85,2s-1.37,1.51-1.86,2-1.15,1.28-2,2.25-1.49,1.71-1.94,2.19l-1-.85a41.28,41.28,0,0,1,3.67-5.17q2.6-3.21,5.84-6.65a42.19,42.19,0,0,1,6.87-5.9q3.62-2.46,6.17-2.46a3.22,3.22,0,0,1,2.65,1.15,4.1,4.1,0,0,1,.94,2.68,29.91,29.91,0,0,1-1.95,9q-.78,2.19-5.41,13.84t-5.47,14.19Q516,70.58,516,71.91a5.39,5.39,0,0,0,.31,2.1,1.31,1.31,0,0,0,1.34.7,8.54,8.54,0,0,0,3.7-1.31,19.89,19.89,0,0,0,4.5-3.44,70.28,70.28,0,0,0,14-19.09c.4-.81,1.24-2.83,2.52-6.08L547,33.06q2.7-6.87,4.41-11.07h9.48l-14.1,36q-5.29,14-4.74,15.8a7.87,7.87,0,0,0,1.33-.7c.49-.3.95-.6,1.4-.91A16.49,16.49,0,0,0,546.28,71l1.52-1.31c.43-.37,1-.86,1.61-1.49s1.15-1.11,1.49-1.46.84-.86,1.49-1.55,1.1-1.16,1.34-1.43L555,62.36a13.64,13.64,0,0,0,1.06-1.15l.85.91a70.58,70.58,0,0,1-10.76,12.43q-7.47,7.22-11.61,7.21-3.29,0-3.28-3.47,0-2.85,4.74-17.08l-.25-.49A66.27,66.27,0,0,1,521.72,76Q514.15,81.76,510.14,81.76Z"/><path class="cls-1" d="M567.41,81.76A8.63,8.63,0,0,1,560.94,79q-2.66-2.73-2.65-8.57a49.12,49.12,0,0,1,3-16.08,74.9,74.9,0,0,1,7.72-16,49,49,0,0,1,10.89-12.13q6.19-4.86,12-4.86c3,0,5.05.66,6.27,2A6.85,6.85,0,0,1,600,28.13a12.12,12.12,0,0,1-1.25,5.2,22.7,22.7,0,0,1-4.25,5.78,39.58,39.58,0,0,1-9,6.5A94.83,94.83,0,0,1,571,52a42.84,42.84,0,0,0-3,14.53c0,2.88.49,5,1.46,6.23s2.59,1.92,4.86,1.92q8.82,0,16.72-13.26l1.34.79a31,31,0,0,1-3.95,6.23,51.1,51.1,0,0,1-6,6.33,31.86,31.86,0,0,1-7.39,5A17.5,17.5,0,0,1,567.41,81.76Zm4.2-31.62q10.64-4.3,15.53-9.42A16.24,16.24,0,0,0,592,29.23a7.11,7.11,0,0,0-1-4,2.8,2.8,0,0,0-2.37-1.43q-3.11,0-8.45,8.39A83.52,83.52,0,0,0,571.61,50.14Z"/></g></g></svg>